<svg width="125" height="36" viewBox="0 0 125 36" fill="none" xmlns="http://www.w3.org/2000/svg">
<g clip-path="url(#clip0_66_42684)">
<path d="M7.07524 0.511164H12.0301L19.0252 17.4088H13.7862L9.36322 6.18509L6.44131 13.5459H9.917L11.3014 17.4015H0L7.07524 0.511164ZM24.8617 4.01629C25.3718 4.01629 25.9256 4.06011 26.4721 4.19885V0.0146047H30.8513V16.664C29.8457 17.1167 27.6816 17.6717 25.5102 17.6717C21.5828 17.6717 18.2091 15.4299 18.2091 10.9681C18.2091 6.50639 21.4589 4.0382 24.8544 4.0382V4.01629H24.8617ZM25.4155 14.0424C25.8235 14.0424 26.1514 13.9621 26.4793 13.8599V7.73319C26.1514 7.60905 25.8235 7.55063 25.3936 7.55063C23.9582 7.55063 22.632 8.61677 22.632 10.8513C22.632 13.0858 23.9873 14.0278 25.4228 14.0278V14.0424H25.4155ZM38.6479 4.01629C42.2912 4.01629 45.3952 6.48448 45.3952 10.8221C45.3952 15.1597 42.3057 17.6279 38.6479 17.6279C34.99 17.6279 31.8787 15.1597 31.8787 10.8221C31.8787 6.48448 34.9463 4.01629 38.6479 4.01629ZM38.6479 13.9767C39.9012 13.9767 41.0597 12.969 41.0597 10.8221C41.0597 8.67519 39.8939 7.66746 38.6479 7.66746C37.3946 7.66746 36.2579 8.67519 36.2579 10.8221C36.2579 12.969 37.3436 13.9767 38.6479 13.9767ZM46.4445 0.0146047H50.8456V4.19885C51.3775 4.09662 51.9313 4.01629 52.4851 4.01629C55.9024 4.01629 59.0721 6.25811 59.0721 10.6468C59.0721 15.2838 55.6984 17.6352 51.7054 17.6352C49.993 17.6352 47.7998 17.2847 46.4445 16.6494V0V0.0146047ZM51.8074 14.0205C53.323 14.0205 54.6929 12.9325 54.6929 10.6979C54.6929 8.60217 53.3376 7.62365 51.873 7.62365C51.4649 7.62365 51.137 7.66747 50.8456 7.80621V13.8599C51.0933 13.9621 51.4212 14.0424 51.8074 14.0424V14.0205ZM66.5481 4.01629C69.8416 4.01629 72.8655 6.13397 72.8655 10.3912C72.8655 10.9681 72.8437 11.5231 72.7635 12.0781H64.5589C65.0106 13.5678 66.3222 14.2688 67.9544 14.2688C69.2878 14.2688 70.5193 13.9402 71.9037 13.3414V16.7005C70.614 17.3577 69.0838 17.6279 67.5026 17.6279C63.3274 17.6279 60.0776 15.1086 60.0776 10.8221C60.0776 6.5356 63.0287 4.01629 66.5481 4.01629ZM68.7559 9.3324C68.53 7.89384 67.5682 7.31695 66.5918 7.31695C65.6081 7.31695 64.8066 7.93035 64.4787 9.3324H68.7559Z" fill="#EB1000"/>
</g>
<path d="M0 35.7171L4.28071 22.1395H7.6091L11.8898 35.7171H9.55145L5.66676 23.535H6.17591L2.33836 35.7171H0ZM2.38551 32.7753V30.6538H9.51374V32.7753H2.38551Z" fill="#485161"/>
<path d="M15.0081 35.7171L11.8966 25.5151L14.1218 25.5339L16.1113 32.0681L18.1291 25.5339H20.0431L22.0515 32.0681L24.0504 25.5339H26.2756L23.1641 35.7171H21.3915L19.0814 28.7115L16.7807 35.7171H15.0081Z" fill="#485161"/>
<path d="M30.2539 36C29.5184 36 28.8961 35.8617 28.387 35.5851C27.8778 35.3022 27.4912 34.9282 27.2272 34.4631C26.9695 33.9979 26.8406 33.4856 26.8406 32.9262C26.8406 32.4359 26.9223 31.9959 27.0858 31.6061C27.2492 31.2101 27.5006 30.8707 27.8401 30.5878C28.1795 30.2987 28.6195 30.0629 29.1601 29.8806C29.5687 29.7486 30.0464 29.6292 30.5933 29.5223C31.1465 29.4155 31.7436 29.318 32.3848 29.23C33.0323 29.1358 33.708 29.0352 34.412 28.9283L33.6011 29.3903C33.6074 28.6863 33.4503 28.1677 33.1297 27.8346C32.8091 27.5014 32.2685 27.3348 31.5079 27.3348C31.049 27.3348 30.6059 27.4417 30.1784 27.6554C29.751 27.8691 29.4524 28.2369 29.2827 28.7586L27.2084 28.108C27.4598 27.2468 27.9375 26.5554 28.6415 26.0337C29.3518 25.5119 30.3073 25.2511 31.5079 25.2511C32.4131 25.2511 33.2083 25.3988 33.8934 25.6942C34.5849 25.9897 35.0972 26.4737 35.4303 27.1463C35.6126 27.5046 35.7226 27.8723 35.7603 28.2494C35.7981 28.6203 35.8169 29.0258 35.8169 29.4658V35.7171H33.8274V33.5108L34.1574 33.8691C33.6986 34.6045 33.1611 35.1451 32.5451 35.4908C31.9354 35.8303 31.1716 36 30.2539 36ZM30.7065 34.1896C31.2219 34.1896 31.6619 34.0985 32.0265 33.9162C32.3911 33.7339 32.6802 33.5108 32.894 33.2467C33.114 32.9827 33.2617 32.7344 33.3371 32.5019C33.4566 32.2127 33.5226 31.8827 33.5351 31.5118C33.554 31.1347 33.5634 30.8298 33.5634 30.5972L34.2611 30.8047C33.576 30.9115 32.9883 31.0058 32.498 31.0875C32.0076 31.1693 31.5865 31.2478 31.2345 31.3233C30.8825 31.3924 30.5713 31.471 30.301 31.559C30.037 31.6533 29.8139 31.7633 29.6316 31.889C29.4493 32.0147 29.3078 32.1593 29.2073 32.3227C29.113 32.4862 29.0658 32.6779 29.0658 32.8979C29.0658 33.1493 29.1287 33.3725 29.2544 33.5673C29.3801 33.7559 29.5624 33.9068 29.8013 34.0199C30.0464 34.1331 30.3482 34.1896 30.7065 34.1896Z" fill="#485161"/>
<path d="M38.2717 35.7171V25.5339H40.28V28.0137L40.0349 27.6931C40.1606 27.3537 40.3272 27.0457 40.5346 26.7691C40.7483 26.4862 41.0029 26.2537 41.2983 26.0714C41.5498 25.9017 41.8263 25.7696 42.1281 25.6754C42.4361 25.5748 42.7504 25.5151 43.071 25.4962C43.3915 25.4711 43.7027 25.4836 44.0044 25.5339V27.6554C43.7027 27.5674 43.3538 27.5391 42.9578 27.5706C42.5681 27.602 42.2161 27.712 41.9018 27.9006C41.5875 28.0703 41.3298 28.2872 41.1286 28.5512C40.9337 28.8152 40.7892 29.1169 40.6949 29.4563C40.6006 29.7895 40.5535 30.1509 40.5535 30.5407V35.7171H38.2717Z" fill="#485161"/>
<path d="M49.7023 36C48.7657 36 47.9485 35.7643 47.2508 35.2928C46.553 34.8214 46.0124 34.1802 45.629 33.3693C45.2455 32.5584 45.0538 31.6438 45.0538 30.6255C45.0538 29.5946 45.2455 28.6769 45.629 27.8723C46.0187 27.0614 46.5687 26.4234 47.279 25.9582C47.9893 25.4868 48.8254 25.2511 49.7871 25.2511C50.7552 25.2511 51.566 25.4868 52.2198 25.9582C52.8798 26.4234 53.3795 27.0614 53.719 27.8723C54.0584 28.6832 54.2281 29.6009 54.2281 30.6255C54.2281 31.6376 54.0584 32.5522 53.719 33.3693C53.3795 34.1802 52.8735 34.8214 52.2009 35.2928C51.5283 35.7643 50.6954 36 49.7023 36ZM50.0511 33.9633C50.6609 33.9633 51.1512 33.8251 51.522 33.5485C51.8992 33.2656 52.1726 32.8727 52.3423 32.3699C52.5184 31.867 52.6064 31.2855 52.6064 30.6255C52.6064 29.9592 52.5184 29.3778 52.3423 28.8812C52.1726 28.3783 51.9055 27.9886 51.5409 27.712C51.1763 27.4291 50.7049 27.2877 50.1266 27.2877C49.5168 27.2877 49.014 27.4386 48.6179 27.7403C48.2219 28.0357 47.9296 28.438 47.7411 28.9472C47.5525 29.4501 47.4582 30.0095 47.4582 30.6255C47.4582 31.2478 47.5493 31.8136 47.7316 32.3227C47.9202 32.8256 48.2062 33.2247 48.5897 33.5202C48.9731 33.8156 49.4603 33.9633 50.0511 33.9633ZM52.6064 35.7171V28.57H52.3235V22.1395H54.6147V35.7171H52.6064Z" fill="#485161"/>
<path d="M63.8999 35.7171L59.9304 22.1395H62.3159L65.022 31.9456L67.7186 22.1584L70.1041 22.1395L72.8102 31.9456L75.5069 22.1395H77.8924L73.9323 35.7171H71.6882L68.9067 26.0619L66.144 35.7171H63.8999Z" fill="#485161"/>
<path d="M79.2512 23.9876V21.9038H81.5235V23.9876H79.2512ZM79.2512 35.7171V25.5339H81.5235V35.7171H79.2512Z" fill="#485161"/>
<path d="M91.3913 35.7171V30.8141C91.3913 30.4935 91.3693 30.1384 91.3253 29.7486C91.2813 29.3589 91.1776 28.9849 91.0141 28.6266C90.857 28.262 90.6181 27.9634 90.2976 27.7309C89.9833 27.4983 89.5558 27.382 89.0152 27.382C88.7261 27.382 88.4401 27.4291 88.1572 27.5234C87.8743 27.6177 87.6166 27.7811 87.384 28.0137C87.1577 28.24 86.9754 28.5543 86.8372 28.9566C86.6989 29.3526 86.6297 29.8618 86.6297 30.4841L85.2814 29.9089C85.2814 29.0415 85.448 28.2557 85.7811 27.5517C86.1206 26.8477 86.6171 26.2882 87.2709 25.8734C87.9246 25.4522 88.7292 25.2416 89.6847 25.2416C90.439 25.2416 91.0613 25.3673 91.5516 25.6188C92.0419 25.8702 92.4316 26.1908 92.7208 26.5805C93.0099 26.9703 93.2236 27.3851 93.3619 27.8251C93.5002 28.2652 93.5882 28.6832 93.6259 29.0792C93.67 29.4689 93.692 29.7864 93.692 30.0315V35.7171H91.3913ZM84.3291 35.7171V25.5339H86.3563V28.6926H86.6297V35.7171H84.3291Z" fill="#485161"/>
<path d="M103.196 35.7171V30.8141C103.196 30.4935 103.174 30.1384 103.13 29.7486C103.086 29.3589 102.982 28.9849 102.819 28.6266C102.662 28.262 102.423 27.9634 102.102 27.7309C101.788 27.4983 101.36 27.382 100.82 27.382C100.531 27.382 100.245 27.4291 99.9617 27.5234C99.6788 27.6177 99.4211 27.7811 99.1885 28.0137C98.9622 28.24 98.78 28.5543 98.6417 28.9566C98.5034 29.3526 98.4342 29.8618 98.4342 30.4841L97.0859 29.9089C97.0859 29.0415 97.2525 28.2557 97.5856 27.5517C97.9251 26.8477 98.4217 26.2882 99.0754 25.8734C99.7291 25.4522 100.534 25.2416 101.489 25.2416C102.244 25.2416 102.866 25.3673 103.356 25.6188C103.846 25.8702 104.236 26.1908 104.525 26.5805C104.814 26.9703 105.028 27.3851 105.166 27.8251C105.305 28.2652 105.393 28.6832 105.43 29.0792C105.474 29.4689 105.496 29.7864 105.496 30.0315V35.7171H103.196ZM96.1336 35.7171V25.5339H98.1608V28.6926H98.4342V35.7171H96.1336Z" fill="#485161"/>
<path d="M112.421 36C111.39 36 110.485 35.7768 109.705 35.3305C108.926 34.8842 108.316 34.2651 107.876 33.473C107.442 32.681 107.225 31.7696 107.225 30.7387C107.225 29.6261 107.439 28.6612 107.867 27.844C108.294 27.0205 108.888 26.3825 109.649 25.9299C110.409 25.4774 111.289 25.2511 112.289 25.2511C113.345 25.2511 114.241 25.4994 114.976 25.9959C115.718 26.4862 116.268 27.1808 116.626 28.0797C116.984 28.9786 117.12 30.0378 117.032 31.2573H114.778V30.4275C114.772 29.3212 114.577 28.5135 114.193 28.0043C113.81 27.4951 113.207 27.2406 112.383 27.2406C111.453 27.2406 110.761 27.5297 110.309 28.108C109.856 28.68 109.63 29.5192 109.63 30.6255C109.63 31.6564 109.856 32.4547 110.309 33.0205C110.761 33.5862 111.421 33.8691 112.289 33.8691C112.848 33.8691 113.329 33.7465 113.731 33.5013C114.14 33.2499 114.454 32.8885 114.674 32.417L116.918 33.0959C116.529 34.0136 115.925 34.7271 115.108 35.2362C114.297 35.7454 113.401 36 112.421 36ZM108.913 31.2573V29.5412H115.919V31.2573H108.913Z" fill="#485161"/>
<path d="M119.135 35.7171V25.5339H121.144V28.0137L120.899 27.6931C121.024 27.3537 121.191 27.0457 121.398 26.7691C121.612 26.4862 121.867 26.2537 122.162 26.0714C122.413 25.9017 122.69 25.7696 122.992 25.6754C123.3 25.5748 123.614 25.5151 123.935 25.4962C124.255 25.4711 124.566 25.4836 124.868 25.5339V27.6554C124.566 27.5674 124.217 27.5391 123.821 27.5706C123.432 27.602 123.08 27.712 122.765 27.9006C122.451 28.0703 122.193 28.2872 121.992 28.5512C121.797 28.8152 121.653 29.1169 121.559 29.4563C121.464 29.7895 121.417 30.1509 121.417 30.5407V35.7171H119.135Z" fill="#485161"/>
<defs>
<clipPath id="clip0_66_42684">
<rect width="72.8655" height="17.6644" fill="white"/>
</clipPath>
</defs>
</svg>
