<svg width="366" height="176" viewBox="0 0 366 176" fill="none" xmlns="http://www.w3.org/2000/svg">
<path d="M4.16 5.024C4.16 3.424 3.616 2.624 2.528 2.624C2.336 2.624 2.112 2.64533 1.856 2.688C1.472 2.752 1.184 2.784 0.992 2.784C0.330667 2.784 0 2.44267 0 1.76C0 1.01333 0.48 0.640001 1.44 0.640001C1.54667 0.640001 1.68533 0.650668 1.856 0.672001L3.552 0.896C4.192 0.981333 4.87467 1.024 5.6 1.024C6.19733 1.024 6.79467 0.992 7.392 0.927999L9.472 0.704C9.87733 0.661334 10.4107 0.640001 11.072 0.640001C13.0133 0.640001 14.6347 0.917334 15.936 1.472C17.6427 2.19733 18.9867 3.456 19.968 5.248C20.9707 7.04 21.472 9.12 21.472 11.488C21.472 13.5787 21.0773 15.4667 20.288 17.152C19.4987 18.816 18.4213 20.0427 17.056 20.832C15.4133 21.792 13.4293 22.272 11.104 22.272C10.6347 22.272 10.1547 22.2507 9.664 22.208L7.456 22.016C6.70933 21.952 5.93067 21.92 5.12 21.92C4.416 21.92 3.84 21.952 3.392 22.016L1.856 22.24C1.81333 22.24 1.73867 22.2507 1.632 22.272C1.52533 22.272 1.44 22.272 1.376 22.272C0.458667 22.272 0 21.8987 0 21.152C0 20.8533 0.096 20.608 0.288 20.416C0.48 20.2027 0.714667 20.096 0.992 20.096C1.22667 20.096 1.51467 20.128 1.856 20.192C2.00533 20.2347 2.22933 20.256 2.528 20.256C3.616 20.256 4.16 19.456 4.16 17.856V5.024ZM6.848 4.704V18.24C6.848 19.2213 7.328 19.8187 8.288 20.032C8.608 20.1173 9.504 20.16 10.976 20.16C13.536 20.16 15.392 19.4667 16.544 18.08C17.9307 16.416 18.624 14.2187 18.624 11.488C18.624 9.35467 18.1973 7.552 17.344 6.08C16.512 4.58667 15.36 3.62667 13.888 3.2C12.9493 2.92267 11.8187 2.784 10.496 2.784C8.81067 2.784 7.776 2.88 7.392 3.072C7.02933 3.264 6.848 3.808 6.848 4.704Z" fill="#B9BCB5"/>
<path d="M41.0093 12.704C41.0093 13.5147 40.9559 14.016 40.8493 14.208C40.7426 14.3787 40.4332 14.464 39.9212 14.464H29.7452C29.4679 14.464 29.2866 14.5067 29.2013 14.592C29.1159 14.656 29.0732 14.7733 29.0732 14.944C29.0732 16.544 29.5533 17.8773 30.5133 18.944C31.4733 20.0107 32.6679 20.544 34.0972 20.544C35.0359 20.544 35.8892 20.288 36.6572 19.776C37.4466 19.264 37.9586 18.6133 38.1932 17.824L38.4813 16.896C38.6306 16.384 38.9826 16.128 39.5373 16.128C40.3266 16.128 40.7212 16.5333 40.7212 17.344C40.7212 18.7307 40.0172 19.968 38.6092 21.056C37.2012 22.1227 35.6013 22.656 33.8092 22.656C31.5692 22.656 29.7879 21.9093 28.4653 20.416C27.1426 18.9013 26.4812 16.8747 26.4812 14.336C26.4812 11.7333 27.1853 9.62133 28.5933 8C30.0013 6.37867 31.8359 5.568 34.0972 5.568C36.1026 5.568 37.7559 6.24 39.0573 7.584C40.3586 8.928 41.0093 10.6347 41.0093 12.704ZM29.3932 11.872C29.3932 12.1707 29.6279 12.32 30.0972 12.32H37.7453C38.1933 12.32 38.4173 12.1707 38.4173 11.872C38.4173 10.7413 37.9906 9.76 37.1372 8.928C36.2839 8.096 35.2812 7.68 34.1292 7.68C32.9346 7.68 31.8466 8.11733 30.8652 8.992C29.8839 9.84533 29.3932 10.8053 29.3932 11.872Z" fill="#B9BCB5"/>
<path d="M52.6995 5.568C54.1288 5.568 55.3235 5.94133 56.2835 6.688V6.56C56.2835 5.77067 56.6248 5.376 57.3075 5.376C58.0115 5.376 58.3635 5.71733 58.3635 6.4C58.3635 6.528 58.3422 6.848 58.2995 7.36C58.2142 7.78667 58.1715 8.21333 58.1715 8.64C58.1715 8.896 58.2035 9.26933 58.2675 9.76C58.3528 10.2507 58.3955 10.624 58.3955 10.88C58.3955 11.6907 58.0435 12.096 57.3395 12.096C56.6568 12.096 56.3048 11.7547 56.2835 11.072L56.2515 10.016C56.2302 9.376 55.8568 8.832 55.1315 8.384C54.4275 7.91467 53.5955 7.68 52.6355 7.68C51.6542 7.68 50.8328 7.936 50.1715 8.448C49.5102 8.93867 49.1795 9.55733 49.1795 10.304C49.1795 11.6693 50.1182 12.48 51.9955 12.736L53.8515 12.992C57.4782 13.4827 59.2915 14.9867 59.2915 17.504C59.2915 19.04 58.7048 20.288 57.5315 21.248C56.3582 22.1867 54.8222 22.656 52.9235 22.656C51.1528 22.656 49.6168 22.1547 48.3155 21.152C48.3368 21.3653 48.3475 21.568 48.3475 21.76C48.3475 22.528 47.9848 22.912 47.2595 22.912C46.4702 22.912 46.0755 22.4747 46.0755 21.6C46.0755 21.7493 46.1395 21.1947 46.2675 19.936C46.3102 19.6373 46.3315 19.3387 46.3315 19.04C46.3315 18.528 46.2888 18.048 46.2035 17.6C46.1182 17.152 46.0755 16.8 46.0755 16.544C46.0755 15.7973 46.4168 15.424 47.0995 15.424C47.5475 15.424 47.8248 15.5307 47.9315 15.744C48.0595 15.9573 48.1342 16.5227 48.1555 17.44C48.1768 18.3573 48.6568 19.104 49.5955 19.68C50.5342 20.256 51.7288 20.544 53.1795 20.544C54.2248 20.544 55.0888 20.2773 55.7715 19.744C56.4542 19.2107 56.7955 18.5387 56.7955 17.728C56.7955 16.2773 55.6435 15.4347 53.3395 15.2C51.1422 14.9653 49.4675 14.5387 48.3155 13.92C47.1635 13.28 46.5875 12.1707 46.5875 10.592C46.5875 9.09867 47.1528 7.89333 48.2835 6.976C49.4142 6.03733 50.8862 5.568 52.6995 5.568Z" fill="#B9BCB5"/>
<path d="M69.4415 12.832V16.992C69.4415 18.0587 69.4522 18.688 69.4735 18.88C69.5802 19.84 69.8682 20.32 70.3375 20.32C70.4442 20.32 70.7108 20.2667 71.1375 20.16C71.2442 20.1173 71.4042 20.096 71.6175 20.096C72.4282 20.096 72.8335 20.448 72.8335 21.152C72.8335 21.4507 72.6948 21.7067 72.4175 21.92C72.1615 22.1333 71.8308 22.24 71.4255 22.24C71.0842 22.24 70.5615 22.1973 69.8575 22.112C69.1748 22.0053 68.6628 21.952 68.3215 21.952C67.7668 21.952 67.1482 21.9947 66.4655 22.08C65.6335 22.1867 65.0788 22.24 64.8015 22.24C63.9482 22.24 63.5215 21.8773 63.5215 21.152C63.5215 20.448 63.8842 20.096 64.6095 20.096C64.7802 20.096 65.0255 20.128 65.3455 20.192C65.6868 20.256 65.9428 20.288 66.1135 20.288C66.6255 20.288 66.9348 19.6053 67.0415 18.24C67.0415 18.1547 67.0415 17.2267 67.0415 15.456V12.832C67.0415 11.0613 67.0415 10.1333 67.0415 10.048C66.9348 8.704 66.6148 8.032 66.0815 8.032C65.9108 8.032 65.6655 8.07467 65.3455 8.16C65.0468 8.224 64.8228 8.256 64.6735 8.256C63.9055 8.256 63.5215 7.91467 63.5215 7.232C63.5215 6.50667 63.9908 6.144 64.9295 6.144C65.3348 6.144 65.6228 6.15467 65.7935 6.176C66.4762 6.26133 66.9135 6.304 67.1055 6.304C67.2762 6.304 67.5322 6.28267 67.8735 6.24C68.2362 6.176 68.5028 6.144 68.6735 6.144C69.2922 6.144 69.6015 6.56 69.6015 7.392C69.6015 7.47733 69.5908 7.60533 69.5695 7.776C69.5482 7.94667 69.5375 8.07467 69.5375 8.16C69.5162 8.33067 69.4948 8.992 69.4735 10.144C69.4522 11.0187 69.4415 11.9147 69.4415 12.832ZM67.7775 4.448C67.2868 4.448 66.8602 4.27733 66.4975 3.936C66.1562 3.57333 65.9855 3.14667 65.9855 2.656C65.9855 2.16533 66.1562 1.74933 66.4975 1.408C66.8602 1.06667 67.2868 0.896 67.7775 0.896C68.2682 0.896 68.6842 1.06667 69.0255 1.408C69.3882 1.74933 69.5695 2.16533 69.5695 2.656C69.5695 3.14667 69.3882 3.57333 69.0255 3.936C68.6842 4.27733 68.2682 4.448 67.7775 4.448Z" fill="#B9BCB5"/>
<path d="M84.3077 5.568C84.8624 5.568 85.4917 5.65333 86.1957 5.824C86.3024 3.73333 87.5184 2.688 89.8438 2.688C90.8251 2.688 91.6464 2.944 92.3077 3.456C92.9691 3.968 93.2998 4.61867 93.2998 5.408C93.2998 5.92 93.1291 6.35733 92.7878 6.72C92.4678 7.08267 92.0838 7.264 91.6357 7.264C91.2944 7.264 90.9957 7.14667 90.7397 6.912C90.4837 6.67733 90.3558 6.4 90.3558 6.08C90.3558 5.73867 90.5904 5.38667 91.0597 5.024C90.7184 4.59733 90.2811 4.384 89.7477 4.384C88.6171 4.384 88.0411 5.088 88.0197 6.496C89.6411 7.584 90.4518 9.04533 90.4518 10.88C90.4518 12.352 89.8971 13.5787 88.7878 14.56C87.6784 15.5413 86.2917 16.032 84.6277 16.032C83.4544 16.032 82.2384 15.7547 80.9798 15.2C80.6384 15.0507 80.3504 14.976 80.1157 14.976C79.8171 14.976 79.5504 15.1147 79.3158 15.392C79.0811 15.648 78.9637 15.9573 78.9637 16.32C78.9637 17.4293 80.0837 17.984 82.3237 17.984H82.5157C82.6864 17.984 82.8784 17.9733 83.0918 17.952C83.3051 17.952 83.4331 17.952 83.4757 17.952C85.5024 17.952 87.1451 18.144 88.4037 18.528C89.5771 18.8907 90.5051 19.456 91.1878 20.224C91.8704 20.992 92.2117 21.856 92.2117 22.816C92.2117 24.3733 91.4864 25.6 90.0358 26.496C88.6064 27.4133 86.6651 27.872 84.2117 27.872C81.7584 27.872 79.8277 27.4453 78.4197 26.592C77.0331 25.7387 76.3397 24.5653 76.3397 23.072C76.3397 21.344 77.3104 20.1173 79.2517 19.392C77.5237 18.7093 76.6597 17.6853 76.6597 16.32C76.6597 14.8267 77.5237 13.8027 79.2517 13.248C78.6971 12.5013 78.4197 11.6267 78.4197 10.624C78.4197 9.17333 78.9744 7.968 80.0837 7.008C81.2144 6.048 82.6224 5.568 84.3077 5.568ZM84.4037 7.68C83.4651 7.68 82.6651 7.95733 82.0037 8.512C81.3424 9.06667 80.9797 9.76 80.9157 10.592C80.9157 10.592 80.9157 10.656 80.9157 10.784C80.9157 11.7227 81.2357 12.48 81.8757 13.056C82.5157 13.632 83.3477 13.92 84.3717 13.92C85.4384 13.92 86.3024 13.632 86.9637 13.056C87.6464 12.48 87.9877 11.744 87.9877 10.848C87.9877 9.93067 87.6464 9.17333 86.9637 8.576C86.2811 7.97867 85.4277 7.68 84.4037 7.68ZM84.4357 20.096C82.7291 20.096 81.3851 20.352 80.4037 20.864C79.4224 21.376 78.9317 22.0693 78.9317 22.944C78.9317 23.8187 79.4117 24.5013 80.3717 24.992C81.3317 25.504 82.6224 25.76 84.2438 25.76C85.9504 25.76 87.2944 25.504 88.2757 24.992C89.2784 24.48 89.7797 23.7973 89.7797 22.944C89.7797 22.048 89.3104 21.3547 88.3717 20.864C87.4331 20.352 86.1211 20.096 84.4357 20.096Z" fill="#B9BCB5"/>
<path d="M101.649 7.104V8C102.929 6.37867 104.635 5.568 106.769 5.568C107.921 5.568 109.009 5.86667 110.033 6.464C111.057 7.04 111.75 7.76533 112.113 8.64C112.411 9.36533 112.561 10.3147 112.561 11.488V17.568C112.561 18.4853 112.571 19.0293 112.593 19.2C112.699 19.9253 112.987 20.288 113.457 20.288C113.649 20.288 113.894 20.2667 114.193 20.224C114.513 20.16 114.737 20.128 114.865 20.128C115.142 20.128 115.377 20.224 115.569 20.416C115.782 20.608 115.889 20.8427 115.889 21.12C115.889 21.44 115.761 21.7067 115.505 21.92C115.249 22.1333 114.939 22.24 114.576 22.24C114.278 22.24 113.787 22.1973 113.104 22.112C112.422 22.0267 111.782 21.984 111.185 21.984C110.63 21.984 110.171 22.0053 109.809 22.048C108.742 22.176 108.177 22.24 108.113 22.24C107.259 22.24 106.833 21.8667 106.833 21.12C106.833 20.4587 107.195 20.128 107.921 20.128C108.091 20.128 108.283 20.1493 108.497 20.192C108.902 20.2773 109.158 20.32 109.265 20.32C109.777 20.32 110.054 19.7333 110.097 18.56L110.161 16.928L110.193 14.976V12.544C110.193 11.4133 110.139 10.6347 110.033 10.208C109.841 9.39733 109.425 8.768 108.785 8.32C108.081 7.82933 107.281 7.584 106.385 7.584C104.678 7.584 103.451 8.192 102.705 9.408C102.193 10.24 101.937 11.6587 101.937 13.664V17.92C101.937 18.8587 102.001 19.4987 102.129 19.84C102.257 20.1813 102.491 20.352 102.833 20.352C103.003 20.352 103.238 20.3093 103.537 20.224C103.835 20.1387 104.081 20.096 104.273 20.096C104.934 20.096 105.265 20.4587 105.265 21.184C105.265 21.888 104.838 22.24 103.985 22.24C103.814 22.24 103.259 22.176 102.321 22.048C101.851 21.984 101.329 21.952 100.753 21.952C100.305 21.952 99.7072 21.9947 98.9605 22.08C98.0218 22.1867 97.4885 22.24 97.3605 22.24C96.4645 22.24 96.0165 21.8773 96.0165 21.152C96.0165 20.4693 96.3578 20.128 97.0405 20.128C97.1472 20.128 97.3392 20.16 97.6165 20.224C97.9152 20.288 98.2032 20.32 98.4805 20.32C99.1205 20.32 99.4512 19.7013 99.4725 18.464L99.5365 14.912V11.04L99.4725 9.92C99.4298 9.19467 99.3338 8.704 99.1845 8.448C99.0565 8.17067 98.8218 8.032 98.4805 8.032C98.3312 8.032 98.1072 8.064 97.8085 8.128C97.5312 8.17067 97.3178 8.192 97.1685 8.192C96.4005 8.192 96.0165 7.85067 96.0165 7.168C96.0165 6.464 96.4965 6.112 97.4565 6.112C97.5845 6.112 97.6912 6.12267 97.7765 6.144L98.9605 6.272C99.3018 6.272 99.6005 6.25067 99.8565 6.208C100.411 6.16533 100.699 6.144 100.721 6.144C101.339 6.144 101.649 6.464 101.649 7.104Z" fill="#B9BCB5"/>
<path d="M139.719 3.2C139.719 2.90133 139.826 2.63467 140.04 2.4C139.677 2.05867 139.143 1.888 138.439 1.888C137.522 1.888 136.797 2.18667 136.264 2.784C135.752 3.36 135.495 4.17067 135.495 5.216V5.792C135.495 6.06933 135.634 6.208 135.911 6.208H138.408C139.112 6.208 139.464 6.592 139.464 7.36C139.464 8.128 139.112 8.512 138.408 8.512H136.04C135.677 8.512 135.495 8.704 135.495 9.088V18.048C135.495 18.8373 135.506 19.296 135.527 19.424C135.634 20 135.901 20.288 136.327 20.288C136.434 20.288 136.701 20.2347 137.128 20.128C137.426 20.0853 137.64 20.064 137.768 20.064C138.493 20.064 138.855 20.416 138.855 21.12C138.855 21.8667 138.418 22.24 137.544 22.24C137.181 22.24 136.626 22.1973 135.88 22.112C135.154 22.0267 134.61 21.984 134.247 21.984C133.607 21.984 133.032 22.016 132.52 22.08C131.688 22.1867 131.154 22.24 130.919 22.24C130.002 22.24 129.544 21.8667 129.544 21.12C129.544 20.8427 129.65 20.5973 129.863 20.384C130.098 20.1707 130.365 20.064 130.663 20.064C130.877 20.064 131.111 20.1067 131.367 20.192C131.645 20.256 131.89 20.288 132.104 20.288C132.509 20.288 132.765 20.032 132.872 19.52C132.978 19.008 133.042 17.7707 133.063 15.808L133.096 9.088C133.096 8.704 132.904 8.512 132.52 8.512H130.919C130.173 8.512 129.799 8.11733 129.799 7.328C129.799 6.58133 130.183 6.208 130.951 6.208H132.775C133.053 6.208 133.191 6.06933 133.191 5.792V5.216C133.191 3.53067 133.639 2.24 134.535 1.344C135.431 0.448 136.701 0 138.344 0C139.688 0 140.765 0.277334 141.576 0.832001C142.386 1.36533 142.792 2.09067 142.792 3.008C142.792 3.47733 142.642 3.86133 142.344 4.16C142.045 4.43733 141.671 4.576 141.223 4.576C140.797 4.576 140.434 4.448 140.135 4.192C139.858 3.91467 139.719 3.584 139.719 3.2Z" fill="#B9BCB5"/>
<path d="M150.48 22.656C148.24 22.656 146.448 21.888 145.104 20.352C143.76 18.7947 143.088 16.7147 143.088 14.112C143.088 11.5093 143.76 9.44 145.104 7.904C146.469 6.34667 148.293 5.568 150.576 5.568C152.901 5.568 154.736 6.32533 156.08 7.84C157.424 9.35467 158.096 11.4133 158.096 14.016C158.096 16.6187 157.403 18.7093 156.016 20.288C154.629 21.8667 152.784 22.656 150.48 22.656ZM150.64 7.68C149.147 7.68 147.973 8.20267 147.12 9.248C146.267 10.2933 145.797 11.776 145.712 13.696C145.712 13.696 145.712 13.8347 145.712 14.112C145.712 16.1173 146.128 17.696 146.96 18.848C147.813 19.9787 148.997 20.544 150.512 20.544C152.069 20.544 153.285 19.9787 154.16 18.848C155.056 17.696 155.504 16.1067 155.504 14.08C155.504 9.81333 153.883 7.68 150.64 7.68Z" fill="#B9BCB5"/>
<path d="M167.981 7.04V7.904C169.09 6.34667 170.573 5.568 172.429 5.568C173.922 5.568 175.127 5.99467 176.045 6.848C176.983 7.68 177.453 8.75733 177.453 10.08C177.453 11.0187 177.218 11.7867 176.749 12.384C176.279 12.96 175.661 13.248 174.893 13.248C174.402 13.248 173.986 13.0987 173.645 12.8C173.303 12.5013 173.133 12.1387 173.133 11.712C173.133 11.3707 173.261 11.072 173.517 10.816C173.773 10.5387 174.071 10.4 174.413 10.4C174.477 10.4 174.615 10.432 174.829 10.496C174.957 10.24 175.021 10.0053 175.021 9.792C175.021 9.17333 174.743 8.65067 174.189 8.224C173.655 7.79733 172.983 7.584 172.173 7.584C170.509 7.584 169.399 8.33067 168.845 9.824C168.503 10.7413 168.333 12.128 168.333 13.984V16.096C168.333 17.5253 168.343 18.3253 168.365 18.496C168.471 19.712 168.802 20.32 169.357 20.32C169.634 20.32 169.922 20.2773 170.221 20.192C170.455 20.128 170.658 20.096 170.829 20.096C171.511 20.096 171.853 20.4373 171.853 21.12C171.853 21.8667 171.415 22.24 170.541 22.24H170.413C170.093 22.24 169.602 22.1973 168.941 22.112C168.301 22.048 167.821 22.016 167.501 22.016C166.647 22.016 165.975 22.0373 165.485 22.08L163.693 22.24C162.818 22.24 162.381 21.8667 162.381 21.12C162.381 20.4587 162.786 20.128 163.597 20.128C163.81 20.128 163.97 20.1387 164.077 20.16L164.557 20.256C164.77 20.2987 164.919 20.32 165.005 20.32C165.538 20.32 165.826 19.8293 165.869 18.848L165.933 17.216L165.837 9.952C165.773 8.69333 165.453 8.064 164.877 8.064C164.706 8.064 164.471 8.096 164.173 8.16C163.874 8.224 163.639 8.256 163.469 8.256C162.765 8.256 162.413 7.91467 162.413 7.232C162.413 6.48533 162.871 6.112 163.789 6.112C164.002 6.112 164.322 6.144 164.749 6.208C165.175 6.25067 165.495 6.272 165.709 6.272C165.879 6.272 166.157 6.25067 166.541 6.208C166.711 6.16533 166.914 6.144 167.149 6.144C167.703 6.144 167.981 6.44267 167.981 7.04Z" fill="#B9BCB5"/>
<path d="M196.852 7.04V8.064C198.046 6.4 199.678 5.568 201.747 5.568C203.881 5.568 205.577 6.304 206.836 7.776C208.094 9.248 208.724 11.2427 208.724 13.76C208.724 16.4693 208.052 18.6347 206.708 20.256C205.385 21.856 203.604 22.656 201.364 22.656C199.508 22.656 198.004 22.0053 196.852 20.704V23.36C196.852 24.1707 196.873 24.6933 196.915 24.928C197.043 25.5893 197.353 25.92 197.844 25.92C197.993 25.92 198.217 25.888 198.516 25.824C198.814 25.76 199.038 25.728 199.188 25.728C199.87 25.728 200.212 26.08 200.212 26.784C200.212 27.488 199.764 27.84 198.868 27.84C198.548 27.84 198.068 27.7973 197.428 27.712C196.958 27.648 196.254 27.616 195.316 27.616C194.804 27.616 194.377 27.6373 194.036 27.68C193.182 27.7867 192.617 27.84 192.34 27.84C191.977 27.84 191.667 27.7227 191.411 27.488C191.155 27.2747 191.027 27.0187 191.027 26.72C191.027 26.0373 191.39 25.696 192.116 25.696C192.244 25.696 192.446 25.728 192.724 25.792C193.086 25.8773 193.353 25.92 193.523 25.92C193.929 25.92 194.174 25.7067 194.26 25.28C194.366 24.8747 194.43 23.7227 194.452 21.824L194.484 9.472C194.462 8.49067 194.185 8 193.652 8C193.502 8 193.268 8.04267 192.948 8.128C192.649 8.192 192.414 8.224 192.243 8.224C191.454 8.224 191.06 7.872 191.06 7.168C191.06 6.48533 191.529 6.144 192.467 6.144C192.702 6.144 192.958 6.15467 193.236 6.176C193.769 6.21867 194.164 6.24 194.42 6.24C194.612 6.24 194.889 6.22933 195.252 6.208C195.614 6.16533 195.881 6.144 196.051 6.144C196.585 6.144 196.852 6.44267 196.852 7.04ZM197.331 10.944C197.139 11.776 197.033 12.7893 197.012 13.984C197.012 14.0693 197.001 14.2293 196.98 14.464C196.98 14.656 196.98 14.8053 196.98 14.912C196.98 16.3413 197.097 17.3867 197.331 18.048C197.566 18.688 198.025 19.264 198.708 19.776C199.412 20.288 200.275 20.544 201.299 20.544C202.835 20.544 204.02 19.9893 204.852 18.88C205.705 17.7493 206.132 16.1493 206.132 14.08C206.132 9.81333 204.617 7.68 201.588 7.68C200.564 7.68 199.646 7.98933 198.836 8.608C198.046 9.22667 197.545 10.0053 197.331 10.944Z" fill="#B9BCB5"/>
<path d="M228.263 12.704C228.263 13.5147 228.21 14.016 228.103 14.208C227.996 14.3787 227.687 14.464 227.175 14.464H216.999C216.722 14.464 216.54 14.5067 216.455 14.592C216.37 14.656 216.327 14.7733 216.327 14.944C216.327 16.544 216.807 17.8773 217.767 18.944C218.727 20.0107 219.922 20.544 221.351 20.544C222.29 20.544 223.143 20.288 223.911 19.776C224.7 19.264 225.212 18.6133 225.447 17.824L225.735 16.896C225.884 16.384 226.236 16.128 226.791 16.128C227.58 16.128 227.975 16.5333 227.975 17.344C227.975 18.7307 227.271 19.968 225.863 21.056C224.455 22.1227 222.855 22.656 221.063 22.656C218.823 22.656 217.042 21.9093 215.719 20.416C214.396 18.9013 213.735 16.8747 213.735 14.336C213.735 11.7333 214.439 9.62133 215.847 8C217.255 6.37867 219.09 5.568 221.351 5.568C223.356 5.568 225.01 6.24 226.311 7.584C227.612 8.928 228.263 10.6347 228.263 12.704ZM216.647 11.872C216.647 12.1707 216.882 12.32 217.351 12.32H224.999C225.447 12.32 225.671 12.1707 225.671 11.872C225.671 10.7413 225.244 9.76 224.391 8.928C223.538 8.096 222.535 7.68 221.383 7.68C220.188 7.68 219.1 8.11733 218.119 8.992C217.138 9.84533 216.647 10.8053 216.647 11.872Z" fill="#B9BCB5"/>
<path d="M240.561 22.656C238.321 22.656 236.529 21.888 235.185 20.352C233.841 18.7947 233.169 16.7147 233.169 14.112C233.169 11.5093 233.841 9.44 235.185 7.904C236.551 6.34667 238.375 5.568 240.657 5.568C242.983 5.568 244.817 6.32533 246.161 7.84C247.505 9.35467 248.177 11.4133 248.177 14.016C248.177 16.6187 247.484 18.7093 246.097 20.288C244.711 21.8667 242.865 22.656 240.561 22.656ZM240.721 7.68C239.228 7.68 238.055 8.20267 237.201 9.248C236.348 10.2933 235.879 11.776 235.793 13.696C235.793 13.696 235.793 13.8347 235.793 14.112C235.793 16.1173 236.209 17.696 237.041 18.848C237.895 19.9787 239.079 20.544 240.593 20.544C242.151 20.544 243.367 19.9787 244.241 18.848C245.137 17.696 245.585 16.1067 245.585 14.08C245.585 9.81333 243.964 7.68 240.721 7.68Z" fill="#B9BCB5"/>
<path d="M258.094 7.04V8.064C259.289 6.4 260.921 5.568 262.99 5.568C265.123 5.568 266.819 6.304 268.078 7.776C269.337 9.248 269.966 11.2427 269.966 13.76C269.966 16.4693 269.294 18.6347 267.95 20.256C266.627 21.856 264.846 22.656 262.606 22.656C260.75 22.656 259.246 22.0053 258.094 20.704V23.36C258.094 24.1707 258.115 24.6933 258.158 24.928C258.286 25.5893 258.595 25.92 259.086 25.92C259.235 25.92 259.459 25.888 259.758 25.824C260.057 25.76 260.281 25.728 260.43 25.728C261.113 25.728 261.454 26.08 261.454 26.784C261.454 27.488 261.006 27.84 260.11 27.84C259.79 27.84 259.31 27.7973 258.67 27.712C258.201 27.648 257.497 27.616 256.558 27.616C256.046 27.616 255.619 27.6373 255.278 27.68C254.425 27.7867 253.859 27.84 253.582 27.84C253.219 27.84 252.91 27.7227 252.654 27.488C252.398 27.2747 252.27 27.0187 252.27 26.72C252.27 26.0373 252.633 25.696 253.358 25.696C253.486 25.696 253.689 25.728 253.966 25.792C254.329 25.8773 254.595 25.92 254.766 25.92C255.171 25.92 255.417 25.7067 255.502 25.28C255.609 24.8747 255.673 23.7227 255.694 21.824L255.726 9.472C255.705 8.49067 255.427 8 254.894 8C254.745 8 254.51 8.04267 254.19 8.128C253.891 8.192 253.657 8.224 253.486 8.224C252.697 8.224 252.302 7.872 252.302 7.168C252.302 6.48533 252.771 6.144 253.71 6.144C253.945 6.144 254.201 6.15467 254.478 6.176C255.011 6.21867 255.406 6.24 255.662 6.24C255.854 6.24 256.131 6.22933 256.494 6.208C256.857 6.16533 257.123 6.144 257.294 6.144C257.827 6.144 258.094 6.44267 258.094 7.04ZM258.574 10.944C258.382 11.776 258.275 12.7893 258.254 13.984C258.254 14.0693 258.243 14.2293 258.222 14.464C258.222 14.656 258.222 14.8053 258.222 14.912C258.222 16.3413 258.339 17.3867 258.574 18.048C258.809 18.688 259.267 19.264 259.95 19.776C260.654 20.288 261.518 20.544 262.542 20.544C264.078 20.544 265.262 19.9893 266.094 18.88C266.947 17.7493 267.374 16.1493 267.374 14.08C267.374 9.81333 265.859 7.68 262.83 7.68C261.806 7.68 260.889 7.98933 260.078 8.608C259.289 9.22667 258.787 10.0053 258.574 10.944Z" fill="#B9BCB5"/>
<path d="M279.969 8.736L280.001 18.688C280.023 19.776 280.311 20.32 280.866 20.32C280.994 20.32 281.26 20.2667 281.665 20.16C281.921 20.1173 282.092 20.096 282.177 20.096C282.881 20.096 283.233 20.4587 283.233 21.184C283.233 21.888 282.796 22.24 281.922 22.24C281.58 22.24 281.036 22.1973 280.289 22.112C279.543 22.0267 278.967 21.984 278.561 21.984C278.22 21.984 277.708 22.0267 277.025 22.112C276.343 22.1973 275.841 22.24 275.521 22.24H275.361C274.465 22.24 274.017 21.856 274.017 21.088C274.017 20.4267 274.38 20.096 275.105 20.096C275.148 20.096 275.223 20.096 275.329 20.096C275.457 20.1173 275.553 20.128 275.617 20.128C276.151 20.2133 276.46 20.256 276.546 20.256C276.93 20.256 277.164 20.096 277.249 19.776C277.356 19.4347 277.42 18.5707 277.441 17.184L277.473 14.944L277.569 9.984L277.538 4.288C277.516 3.648 277.484 3.22133 277.441 3.008C277.292 2.51733 276.994 2.272 276.546 2.272C276.482 2.272 276.204 2.31467 275.714 2.4C275.479 2.44267 275.287 2.464 275.137 2.464C274.412 2.464 274.049 2.12267 274.049 1.44C274.049 0.736001 274.476 0.384001 275.329 0.384001C275.564 0.384001 275.767 0.394667 275.938 0.416L276.706 0.512001C277.047 0.554667 277.335 0.576 277.569 0.576C277.783 0.576 278.103 0.544 278.529 0.48C278.956 0.394667 279.276 0.352001 279.49 0.352001C279.98 0.352001 280.225 0.661334 280.225 1.28C280.225 1.49333 280.215 1.65333 280.193 1.76C280.044 3.40267 279.969 5.728 279.969 8.736Z" fill="#B9BCB5"/>
<path d="M301.94 12.704C301.94 13.5147 301.887 14.016 301.78 14.208C301.674 14.3787 301.364 14.464 300.852 14.464H290.676C290.399 14.464 290.218 14.5067 290.132 14.592C290.047 14.656 290.004 14.7733 290.004 14.944C290.004 16.544 290.484 17.8773 291.444 18.944C292.404 20.0107 293.599 20.544 295.029 20.544C295.967 20.544 296.821 20.288 297.589 19.776C298.378 19.264 298.89 18.6133 299.124 17.824L299.413 16.896C299.562 16.384 299.914 16.128 300.469 16.128C301.258 16.128 301.652 16.5333 301.652 17.344C301.652 18.7307 300.948 19.968 299.54 21.056C298.132 22.1227 296.532 22.656 294.74 22.656C292.5 22.656 290.719 21.9093 289.396 20.416C288.074 18.9013 287.413 16.8747 287.413 14.336C287.413 11.7333 288.117 9.62133 289.525 8C290.933 6.37867 292.767 5.568 295.029 5.568C297.034 5.568 298.687 6.24 299.988 7.584C301.29 8.928 301.94 10.6347 301.94 12.704ZM290.324 11.872C290.324 12.1707 290.559 12.32 291.029 12.32H298.676C299.124 12.32 299.348 12.1707 299.348 11.872C299.348 10.7413 298.922 9.76 298.068 8.928C297.215 8.096 296.212 7.68 295.06 7.68C293.866 7.68 292.778 8.11733 291.796 8.992C290.815 9.84533 290.324 10.8053 290.324 11.872Z" fill="#B9BCB5"/>
<path d="M0 103.547L6.60515 56.5914H29.2981C44.7319 56.5914 54.1492 66.2049 54.1492 78.4342C54.1492 91.6445 43.4894 103.547 25.1127 103.547H0ZM10.5944 95.3068H25.5051C37.1458 95.3068 44.3396 87.7861 44.3396 78.9574C44.3396 71.1751 38.5846 64.8315 28.3825 64.8315H14.8452L10.5944 95.3068Z" fill="#B9BCB5"/>
<path d="M76.1989 96.8109C81.0383 96.8109 85.093 94.5874 87.0549 90.729L94.5102 94.3912C91.1749 100.539 84.3082 104.266 75.7411 104.266C64.6889 104.266 56.645 97.2033 56.645 87.5899C56.645 77.2571 65.2121 68.4938 77.703 68.4938C88.8206 68.4938 96.0798 75.2298 96.0798 84.3854C96.0798 85.628 95.949 87.0013 95.5566 88.8978H65.4083C66.2585 93.8681 70.7055 96.8109 76.1989 96.8109ZM77.1799 75.8183C72.1442 75.8183 67.8934 78.565 66.1277 82.6851H87.2511C86.9241 79.0228 83.3926 75.8183 77.1799 75.8183Z" fill="#B9BCB5"/>
<path d="M96.2938 96.484L102.049 90.7944C105.319 95.0452 110.681 97.1379 117.156 97.1379C122.453 97.1379 125.2 95.6992 125.2 93.4103C125.2 90.7944 120.491 90.5328 114.605 89.748C107.935 88.767 100.675 87.1975 100.675 80.0692C100.675 73.5294 106.627 68.4938 118.071 68.4938C126.181 68.4938 133.047 71.5021 136.056 75.3605L130.301 80.7885C127.619 77.5841 122.714 75.5567 117.025 75.5567C112.055 75.5567 109.766 76.9955 109.766 78.9574C109.766 81.1809 113.755 81.6387 118.921 82.3581C125.919 83.2737 134.355 84.7124 134.355 92.1677C134.355 99.5576 127.423 104.266 116.502 104.266C107.608 104.266 99.9561 101.193 96.2938 96.484Z" fill="#B9BCB5"/>
<path d="M142.529 65.0931L143.706 56.5914H153.058L151.881 65.0931H142.529ZM151.227 69.1478L146.387 103.547H137.232L142.071 69.1478H151.227Z" fill="#B9BCB5"/>
<path d="M183.407 99.6884L183.669 98.2497C181.053 101.062 176.671 103.024 171.308 103.024C161.041 103.024 153.913 96.3532 153.913 87.0667C153.913 77.1917 161.695 68.4284 173.663 68.4284C179.549 68.4284 184.257 70.5865 187.2 73.8564L187.789 69.1478H196.944L192.628 99.6884C191.255 109.171 183.538 115.907 170.72 115.907C160.845 115.907 153.455 112.31 151.297 106.686L158.098 102.304C159.995 106.294 164.769 108.713 171.047 108.713C178.371 108.713 182.491 105.509 183.407 99.6884ZM173.728 95.6992C180.595 95.6992 185.827 90.9252 185.827 84.9086C185.827 79.546 181.314 75.8183 174.905 75.8183C167.908 75.8183 162.676 80.6577 162.676 86.6089C162.676 91.9715 167.254 95.6992 173.728 95.6992Z" fill="#B9BCB5"/>
<path d="M199.117 103.547L203.956 69.1478H213.112L212.458 73.3986C215.335 70.3903 219.455 68.4938 224.622 68.4938C233.974 68.4938 239.859 74.9028 238.486 84.5816L235.805 103.547H226.649L229.069 86.5435C229.854 80.6577 226.911 76.7339 221.025 76.7339C215.074 76.7339 211.411 80.7231 210.627 86.6743L208.272 103.547H199.117Z" fill="#B9BCB5"/>
<path d="M269.59 68.69C270.898 59.7959 276.522 55.8721 285.874 55.8721C289.013 55.8721 292.349 56.3299 295.095 57.1146L292.806 64.5699C290.648 64.0468 288.294 63.6544 286.005 63.6544C281.231 63.6544 279.007 65.3547 278.55 68.69L278.484 69.1478H291.629L290.517 76.7993H277.438L273.71 103.547H264.685L268.413 76.7993H260.173L261.285 69.1478H269.525L269.59 68.69Z" fill="#B9BCB5"/>
<path d="M309.613 104.266C298.626 104.266 290.582 97.8573 290.582 87.5245C290.582 77.0609 299.084 68.4938 311.574 68.4938C322.561 68.4938 330.605 74.9028 330.605 85.2356C330.605 95.6338 322.103 104.266 309.613 104.266ZM311.182 76.1453C303.727 76.1453 299.345 81.4425 299.345 87.1975C299.345 93.2141 304.054 96.6148 310.005 96.6148C317.46 96.6148 321.842 91.2522 321.842 85.4972C321.842 79.546 317.133 76.1453 311.182 76.1453Z" fill="#B9BCB5"/>
<path d="M364.032 69.4094L362.789 78.4342C361.285 78.0418 360.435 77.8457 358.735 77.8457C351.018 77.8457 345.655 81.1809 344.543 88.8978L342.516 103.547H333.361L338.2 69.1478H347.356L346.44 75.2297C349.906 70.7173 354.746 68.9516 360.239 68.9516C361.808 68.9516 363.116 69.1478 364.032 69.4094Z" fill="#B9BCB5"/>
<path d="M0 174.489L6.60515 127.533H16.2186L10.7906 166.183H43.8164L42.6392 174.489H0Z" fill="#B9BCB5"/>
<path d="M65.2019 175.208C54.2151 175.208 46.1712 168.799 46.1712 158.466C46.1712 148.003 54.6729 139.436 67.1638 139.436C78.1506 139.436 86.1945 145.845 86.1945 156.177C86.1945 166.576 77.6928 175.208 65.2019 175.208ZM66.7714 147.087C59.3161 147.087 54.9345 152.384 54.9345 158.139C54.9345 164.156 59.6431 167.557 65.5943 167.557C73.0496 167.557 77.4312 162.194 77.4312 156.439C77.4312 150.488 72.7226 147.087 66.7714 147.087Z" fill="#B9BCB5"/>
<path d="M108.63 174.489H99.2132L87.5724 140.09H97.2513L105.23 164.614L120.533 140.09H130.866L108.63 174.489Z" fill="#B9BCB5"/>
<path d="M147.6 167.753C152.439 167.753 156.494 165.529 158.456 161.671L165.911 165.333C162.576 171.48 155.709 175.208 147.142 175.208C136.09 175.208 128.046 168.145 128.046 158.532C128.046 148.199 136.613 139.436 149.104 139.436C160.221 139.436 167.481 146.172 167.481 155.327C167.481 156.57 167.35 157.943 166.957 159.84H136.809C137.659 164.81 142.106 167.753 147.6 167.753ZM148.581 146.76C143.545 146.76 139.294 149.507 137.529 153.627H158.652C158.325 149.965 154.793 146.76 148.581 146.76Z" fill="#B9BCB5"/>
<path d="M200.596 128.18C209.253 128.18 216.271 135.198 216.271 143.855C224.929 143.855 231.948 150.875 231.948 159.532C231.948 168.19 224.929 175.208 216.271 175.208H188.839C186.674 175.208 184.92 173.453 184.92 171.289V143.855C184.92 135.198 191.938 128.18 200.596 128.18Z" fill="#F46518"/>
</svg>
