<svg preserveAspectRatio="none" width="100%" height="100%" overflow="visible" style="display: block;" viewBox="0 0 175.75 47.9542" fill="none" xmlns="http://www.w3.org/2000/svg">
<g id="svgg">
<path id="path0" fill-rule="evenodd" clip-rule="evenodd" d="M23.2993 0.0331133C22.7017 0.0528883 21.593 0.124518 20.1133 0.239213C19.8114 0.262504 19.3553 0.310843 19.1004 0.346438C18.8451 0.382033 18.5937 0.395216 18.5419 0.375002C18.49 0.355227 17.924 0.421583 17.2846 0.523095C16.6452 0.624167 15.9571 0.726558 15.7558 0.750727C15.5541 0.774457 15.2083 0.839935 14.9868 0.895744C14.7649 0.951993 14.4353 1.01703 14.2542 1.04076C13.7713 1.10448 12.8629 1.3286 12.8629 1.38441C12.8625 1.41077 12.797 1.41517 12.717 1.39451C12.6375 1.37342 12.5136 1.38133 12.4424 1.41209C12.3716 1.44285 12.264 1.47757 12.2033 1.48899C12.0095 1.52547 11.2322 1.7509 10.6288 1.94558C10.3067 2.04929 10.0101 2.13806 9.96963 2.14245C9.89976 2.14992 9.78375 2.19123 9.4568 2.32482C9.14128 2.45446 9.01516 2.49401 8.96067 2.48258C8.92947 2.47555 8.77434 2.53663 8.6157 2.61749C8.45707 2.69835 8.27689 2.76426 8.21493 2.76426C8.15253 2.76426 8.10199 2.79722 8.10199 2.83765C8.10199 2.87808 8.04926 2.91104 7.9851 2.91104C7.92094 2.91104 7.77724 2.97564 7.66562 3.05518C7.55401 3.13472 7.44019 3.1769 7.41294 3.14966C7.28331 3.01958 7.41206 18.6722 7.54697 19.4632C7.61948 19.8864 7.68804 20.3583 7.6999 20.5121C7.72715 20.8707 8.004 22.008 8.20263 22.5762C8.287 22.8179 8.36083 23.0403 8.3661 23.0706C8.37181 23.1005 8.38324 23.1334 8.39159 23.1435C8.3995 23.1536 8.41708 23.2112 8.43026 23.2718C8.44388 23.3321 8.5076 23.5052 8.5722 23.6559C8.6368 23.8071 8.69217 23.9552 8.69481 23.9855C8.69788 24.0158 8.73435 24.0822 8.77654 24.1323C8.81829 24.1828 8.83235 24.2241 8.80818 24.2241C8.78357 24.2241 8.82884 24.3401 8.90881 24.4825C8.98879 24.6249 9.05427 24.7866 9.05427 24.8429C9.05427 24.8987 9.07888 24.9554 9.1092 24.9685C9.13908 24.9822 9.30871 25.2731 9.48537 25.6154C9.66202 25.9577 9.8523 26.2649 9.90811 26.2974C9.96392 26.3304 9.99029 26.388 9.967 26.4257C9.94327 26.4635 9.95909 26.4943 10.0017 26.4943C10.0448 26.4943 10.0795 26.5492 10.0795 26.6156C10.0795 26.6824 10.1617 26.845 10.2627 26.9768C10.3634 27.1091 10.4456 27.2396 10.4456 27.2673C10.4456 27.3112 10.667 27.5991 10.9883 27.9722C11.0463 28.0394 11.1315 28.1655 11.1781 28.2521C11.2247 28.3391 11.3258 28.4731 11.4035 28.5509C11.4809 28.6282 11.5442 28.7245 11.5442 28.7649C11.5442 28.8053 11.5938 28.8383 11.654 28.8383C11.7147 28.8383 11.756 28.8677 11.7459 28.9033C11.7265 28.9715 12.1752 29.5181 12.6797 30.0415C12.8405 30.2085 13.0796 30.4691 13.2105 30.6198C13.3415 30.7705 13.4487 30.8738 13.4487 30.8492C13.4487 30.8246 13.6724 31.0294 13.9462 31.3045C14.5627 31.9241 15.5295 32.7946 15.7571 32.9348C15.8507 32.9928 15.9623 33.1163 16.005 33.2095C16.0472 33.3026 16.1179 33.3791 16.1614 33.3791C16.2374 33.3791 16.364 33.4837 16.9353 34.0198C17.0746 34.1508 17.2143 34.258 17.246 34.258C17.2772 34.258 17.376 34.3569 17.4653 34.4777C17.5545 34.5985 17.6551 34.6974 17.6889 34.6974C17.7478 34.6974 18.124 35.0248 18.875 35.7297C19.0719 35.9147 19.2459 36.0531 19.2613 36.0377C19.2771 36.0224 19.3742 36.1098 19.477 36.2324C19.5803 36.355 19.6866 36.4552 19.713 36.4552C19.7398 36.4552 19.8536 36.5457 19.9657 36.6565C20.3533 37.0392 20.6868 37.3341 20.7321 37.3341C20.7571 37.3341 20.8758 37.4347 20.9958 37.5573C21.1249 37.6892 21.2515 37.7595 21.3047 37.7287C21.3543 37.7002 21.3702 37.7045 21.3394 37.7379C21.2814 37.8021 21.5569 38.1396 21.6677 38.1396C21.7411 38.1396 22.0851 38.5144 22.0887 38.5975C22.0935 38.7144 21.9265 38.6432 21.7024 38.4331C21.5736 38.3123 21.4264 38.2134 21.3746 38.2134C21.3231 38.213 21.2616 38.1633 21.2388 38.1031C21.2155 38.0425 21.1518 37.9933 21.0973 37.9933C21.0428 37.9933 20.9391 37.9331 20.867 37.8597C20.7949 37.7863 20.6205 37.6474 20.4798 37.5512C20.3388 37.4549 20.1797 37.3253 20.1265 37.2633C20.0448 37.1689 20.0382 37.1684 20.0857 37.2607C20.1169 37.3213 20.0233 37.2717 19.8782 37.1508C19.31 36.6784 19.0618 36.4882 18.8952 36.3981C18.7998 36.3462 18.7221 36.2702 18.7221 36.2289C18.7221 36.1876 18.6931 36.1713 18.6575 36.1933C18.6223 36.2153 18.5151 36.1581 18.4193 36.0663C18.3239 35.9744 18.0669 35.7732 17.8484 35.6189C17.63 35.4647 17.4156 35.3096 17.3725 35.2749C17.329 35.2397 17.1453 35.0947 16.9643 34.9523C16.7828 34.8099 16.5578 34.6284 16.4638 34.5489C16.3693 34.4694 16.2726 34.4043 16.248 34.4043C16.2234 34.4043 16.1056 34.3138 15.9865 34.203C15.867 34.0923 15.7936 34.051 15.823 34.1116C15.8525 34.1718 15.8165 34.1556 15.7431 34.0747C15.5431 33.8559 14.9868 33.4314 14.9868 33.4982C14.9868 33.5298 14.8738 33.4367 14.7363 33.2908C14.5988 33.1449 14.4726 33.0385 14.4564 33.0548C14.4401 33.071 14.3324 32.9862 14.2169 32.8658C14.1013 32.7454 13.9774 32.6465 13.9409 32.6465C13.882 32.6465 13.7146 32.5099 13.2984 32.1218C13.2268 32.0546 13.1547 32.0129 13.1385 32.0287C13.1227 32.0449 12.9152 31.8788 12.6779 31.6595C12.4406 31.4403 12.2345 31.2728 12.2205 31.2869C12.2064 31.301 12.1207 31.2421 12.0306 31.1559C11.7217 30.8597 11.3991 30.5961 11.346 30.5961C11.2928 30.5961 11.1227 30.441 10.7615 30.0648C10.6552 29.9541 10.5321 29.8635 10.4877 29.8635C10.4438 29.8635 10.3665 29.7976 10.3164 29.7172C10.2658 29.6363 10.1876 29.5704 10.1423 29.5704C10.0966 29.5704 9.98458 29.4966 9.89317 29.4056C9.80177 29.3151 9.5671 29.0958 9.37199 28.9187C8.8385 28.434 7.89326 27.52 7.92578 27.52C7.9416 27.52 7.85063 27.4211 7.72407 27.3002C7.59795 27.1794 7.46919 27.0805 7.43887 27.0805C7.40855 27.0805 7.29649 26.932 7.19014 26.7509C7.08424 26.5694 6.96954 26.4214 6.93571 26.4214C6.90187 26.4214 6.85573 26.3519 6.83375 26.2675C6.81178 26.1827 6.76081 26.134 6.72082 26.1586C6.68039 26.1832 6.62458 26.1304 6.59601 26.0412C6.56789 25.952 6.50505 25.8391 6.45627 25.7903C6.40793 25.742 6.25676 25.5262 6.12054 25.3109C5.98431 25.096 5.85555 24.9031 5.83402 24.8833C5.73866 24.7936 5.48422 24.3713 5.28207 23.9675C5.16123 23.7258 5.03774 23.5171 5.00698 23.5034C4.97666 23.4903 4.97051 23.4489 4.99292 23.412C5.01577 23.3751 4.99951 23.3452 4.95688 23.3452C4.91426 23.3452 4.87954 23.2855 4.87954 23.2125C4.87954 23.1391 4.79209 22.9005 4.68575 22.6812C4.57896 22.4624 4.48096 22.2172 4.46778 22.1368C4.4546 22.0559 4.37945 21.7681 4.30035 21.4969C4.22169 21.2258 4.1404 20.8632 4.12062 20.6914C4.04152 20.0125 4.00153 19.7119 3.96594 19.5366C3.84333 18.9323 3.78225 17.414 3.77917 14.896L3.77522 12.0317L3.9778 11.8841C4.08942 11.8028 4.19401 11.7474 4.21027 11.761C4.22697 11.7746 4.2608 11.7575 4.28541 11.7232C4.33419 11.6551 4.9459 11.3299 5.77645 10.93L6.0511 10.7978V8.68535C6.0511 7.3257 6.02518 6.57294 5.97815 6.57294C5.93773 6.57294 5.90477 6.61161 5.90477 6.65819C5.90477 6.70521 5.88411 6.72323 5.85907 6.69818C5.83402 6.67313 5.6868 6.71707 5.53256 6.79573C5.37787 6.87483 5.20078 6.93899 5.13881 6.93899C5.07641 6.93899 5.02588 6.97415 5.02588 7.01678C5.02588 7.0594 4.99292 7.0739 4.95249 7.04885C4.9125 7.02425 4.87954 7.04402 4.87954 7.09368C4.87954 7.1429 4.85933 7.16311 4.83472 7.1385C4.81011 7.11389 4.61236 7.19387 4.39527 7.31648C4.17819 7.43864 4.00065 7.5173 4.00065 7.4905C4.00065 7.46369 3.90178 7.51247 3.78093 7.59816C3.66008 7.68429 3.56121 7.73395 3.56121 7.70846C3.56121 7.64958 2.95653 7.97652 2.8849 8.07452C2.85502 8.11451 2.83041 8.12066 2.82997 8.0877C2.82909 8.05474 2.73813 8.08946 2.62739 8.16461C2.51665 8.23975 2.33515 8.33994 2.22441 8.38784C2.11367 8.4353 2.02315 8.50386 2.02315 8.54033C2.02315 8.60449 1.75025 8.72094 1.63863 8.70468C1.60831 8.70029 1.5837 8.72973 1.5837 8.77016C1.5837 8.81059 1.53405 8.84355 1.47384 8.84355C1.4132 8.84355 1.36354 8.86816 1.36354 8.89848C1.36354 8.92836 1.18381 9.05009 0.964964 9.1683C0.745681 9.28651 0.586163 9.41527 0.610332 9.45438C0.634502 9.49305 0.618242 9.50316 0.574298 9.47591C0.530353 9.44866 0.411264 9.50975 0.309752 9.61082C0.20824 9.71233 0.091787 9.79539 0.0509186 9.79539C-0.048396 9.79539 0.0104896 17.3446 0.116835 18.2916C0.159901 18.6739 0.230652 19.185 0.274596 19.4267C0.318541 19.6684 0.36688 20.0142 0.38226 20.1957C0.397201 20.3772 0.494319 20.8219 0.597588 21.1845C0.700858 21.547 0.793581 21.8766 0.803688 21.917C0.947387 22.4883 1.3341 23.4081 1.47252 23.5087C1.51339 23.5382 1.5191 23.5632 1.48483 23.5636C1.45099 23.5645 1.50504 23.7047 1.60568 23.8761C1.70587 24.0475 1.79112 24.2202 1.79508 24.2606C1.79903 24.301 1.85528 24.3959 1.92032 24.472C1.98492 24.5476 2.07764 24.6961 2.12554 24.8016C2.26924 25.1158 2.49511 25.4682 2.554 25.4686C2.58432 25.4691 2.60893 25.5148 2.60893 25.571C2.60893 25.6273 2.65815 25.6923 2.71879 25.7152C2.77943 25.7385 2.82865 25.8052 2.82865 25.8637C2.82865 25.9217 2.85458 25.9806 2.88622 25.9938C2.91742 26.0074 3.10067 26.2245 3.29314 26.4763C3.48562 26.7281 3.66843 26.9337 3.70007 26.9337C3.73171 26.9337 3.79499 27.0164 3.84069 27.117C3.8864 27.2176 3.97429 27.3002 4.03537 27.3002C4.09689 27.3002 4.14699 27.3328 4.14699 27.3728C4.14699 27.5024 5.01138 28.4454 5.10542 28.4182C5.13794 28.409 5.23417 28.4995 5.31987 28.6199C5.40512 28.7399 5.50355 28.8383 5.53827 28.8383C5.57299 28.8383 5.72372 28.9534 5.87313 29.0945C6.02254 29.2356 6.17019 29.3507 6.20139 29.3507C6.23259 29.3507 6.36794 29.4504 6.50241 29.5722C7.09742 30.1105 7.33912 30.3021 7.42437 30.3025C7.47491 30.303 7.51621 30.3364 7.51621 30.3772C7.51621 30.4185 7.63135 30.5069 7.77241 30.5741C7.91347 30.6413 8.02861 30.7451 8.02861 30.8048C8.02861 30.8646 8.05146 30.8909 8.0787 30.8633C8.10639 30.8356 8.23822 30.9191 8.37181 31.0483C8.5054 31.1779 8.61483 31.261 8.61483 31.2328C8.61483 31.2047 8.67503 31.2394 8.7493 31.3102C8.82312 31.3805 8.96023 31.4877 9.05427 31.5479C9.14787 31.6086 9.28542 31.7158 9.35925 31.7861C9.43307 31.8564 9.52052 31.9144 9.55304 31.9144C9.58556 31.9144 9.67653 31.972 9.75431 32.0423C9.98062 32.2466 10.4776 32.6096 10.5312 32.6096C10.5585 32.6101 10.6574 32.6764 10.751 32.7577C11.1394 33.0939 11.4501 33.3022 11.4958 33.2565C11.5226 33.2301 11.5442 33.2433 11.5442 33.2864C11.5442 33.3571 11.8166 33.5628 12.6423 34.1165C12.7966 34.2197 13.0167 34.3775 13.131 34.4667C13.5476 34.7923 14.4739 35.4269 14.4739 35.3865C14.4739 35.3641 14.5755 35.4471 14.6998 35.571C14.8242 35.6954 14.9516 35.7811 14.9833 35.7613C15.0153 35.7415 15.1441 35.8237 15.2698 35.9441C15.395 36.0641 15.5229 36.1625 15.5537 36.1625C15.584 36.1625 15.7246 36.2614 15.8657 36.3818C16.0063 36.5027 16.1597 36.6015 16.2058 36.6015C16.2515 36.6015 16.3091 36.6534 16.3332 36.7162C16.3574 36.7791 16.4044 36.8138 16.4374 36.7931C16.4708 36.7729 16.5864 36.838 16.6945 36.9382C16.8026 37.0383 16.8909 37.1012 16.8909 37.0779C16.8909 37.0542 16.981 37.1188 17.0917 37.2212C17.202 37.3235 17.3198 37.4075 17.3532 37.4075C17.387 37.4075 17.6511 37.5815 17.9399 37.7946C18.229 38.0078 18.5564 38.2275 18.6671 38.2833C18.7779 38.3387 18.8684 38.4077 18.8684 38.4362C18.8684 38.4648 18.9673 38.5289 19.0881 38.579C19.209 38.6291 19.3078 38.699 19.3078 38.7346C19.3078 38.7698 19.3404 38.7988 19.3804 38.7988C19.4485 38.7988 19.6401 38.9381 19.8602 39.1468C19.913 39.1973 19.9776 39.2382 20.0035 39.2382C20.029 39.2382 20.1582 39.3208 20.29 39.4215C20.4223 39.5221 20.5532 39.6047 20.5818 39.6047C20.6099 39.6047 20.7097 39.6869 20.8028 39.7875C20.896 39.8886 21.005 39.9708 21.0445 39.9708C21.0836 39.9708 21.212 40.0529 21.3289 40.1536C21.4457 40.2546 21.5675 40.3368 21.5991 40.3368C21.6308 40.3368 21.6215 40.4027 21.5785 40.4836C21.5354 40.564 21.4598 40.6299 21.411 40.6299C21.3618 40.6299 21.1816 40.7578 21.0107 40.9143C20.8393 41.0707 20.6996 41.1788 20.6996 41.1546C20.6996 41.13 20.6482 41.1832 20.5853 41.2728C20.5229 41.3625 20.424 41.4354 20.3656 41.4354C20.3076 41.4354 20.2601 41.464 20.2601 41.4992C20.2601 41.5339 19.9468 41.8019 19.564 42.0946C19.1813 42.3873 18.8684 42.6553 18.8684 42.6905C18.8684 42.7252 18.8328 42.7538 18.7893 42.7538C18.7458 42.7538 18.5801 42.8856 18.4202 43.0469C18.2606 43.2082 18.106 43.34 18.0761 43.34C18.0466 43.34 17.9675 43.3976 17.9007 43.4679C17.8335 43.5386 17.6907 43.6621 17.5826 43.7425C17.2341 44.0022 16.8175 44.4188 16.8175 44.5076C16.8175 44.5546 16.7894 44.5761 16.7551 44.5551C16.7208 44.5335 16.6158 44.5977 16.5226 44.697C16.429 44.7963 16.3833 44.8789 16.4203 44.8802C16.4576 44.8816 16.4304 44.9158 16.36 44.9571C16.2893 44.998 16.2317 45.0815 16.2317 45.1422C16.2317 45.2028 16.1992 45.2327 16.1592 45.2081C16.1162 45.1813 16.1065 45.2142 16.135 45.2889C16.1684 45.3755 16.1561 45.3979 16.0959 45.3606C16.0476 45.3307 16.0151 45.3338 16.0234 45.3667C16.0318 45.4001 15.9997 45.5592 15.9527 45.72C15.9052 45.8813 15.8661 46.4499 15.8661 46.9834L15.8657 47.9542H24.4058H32.946L32.9192 46.8006C32.9047 46.1661 32.8608 45.5974 32.8221 45.5372C32.7834 45.4766 32.7505 45.3918 32.7496 45.3487C32.747 45.2498 32.3862 44.791 32.0518 44.4615C31.5011 43.9187 31.4251 43.8524 31.3544 43.8524C31.3144 43.8524 31.2383 43.7834 31.1856 43.699C31.1324 43.6146 31.0731 43.5615 31.0533 43.5812C31.0336 43.601 30.943 43.5465 30.8525 43.4604C30.4131 43.0425 29.9806 42.6712 29.7992 42.5556C29.6884 42.4857 29.5447 42.3697 29.4797 42.2981C29.4146 42.2264 29.3228 42.168 29.2762 42.168C29.2292 42.168 29.1716 42.1183 29.1488 42.0581C29.1255 41.9975 29.0785 41.9483 29.0442 41.9483C29.0095 41.9483 28.8473 41.8169 28.6838 41.6565C28.4026 41.3805 28.0234 41.2702 28.0234 41.4636C28.0234 41.5018 28.0014 41.511 27.9746 41.4842C27.9478 41.4574 27.8735 41.4794 27.8098 41.5334C27.7461 41.5875 27.3545 41.7751 26.9392 41.95C26.5244 42.1249 26.168 42.295 26.1478 42.3279C26.1272 42.3609 26.0467 42.3877 25.9685 42.3877C25.8903 42.3877 25.8261 42.4259 25.8261 42.473C25.8261 42.52 25.8042 42.5367 25.7774 42.5094C25.7501 42.4826 25.6596 42.5046 25.5757 42.5587C25.4922 42.6127 25.0773 42.8131 24.6546 43.0043C23.454 43.547 23.2633 43.6349 22.6771 43.9161C22.3747 44.0611 22.1111 44.1833 22.0909 44.1868C22.0711 44.1908 21.7626 44.3314 21.4062 44.4992C21.0498 44.6671 20.7286 44.8047 20.6921 44.8047C20.6561 44.8047 20.6262 44.8323 20.6262 44.8657C20.6262 44.8991 20.5765 44.9268 20.5163 44.9268C20.3493 44.9268 20.3854 44.8209 20.5712 44.7647C20.6618 44.7374 20.8235 44.6328 20.9307 44.5331C21.0375 44.4329 21.1474 44.3573 21.1746 44.3648C21.2019 44.3722 21.3201 44.2931 21.4374 44.1886C21.5552 44.084 21.6663 44.0066 21.6857 44.0172C21.7046 44.0273 21.7872 43.9781 21.8698 43.9073C21.952 43.837 22.0522 43.7794 22.0917 43.7794C22.1317 43.7794 22.1642 43.7517 22.1642 43.7179C22.1642 43.6841 22.2486 43.6177 22.3514 43.5711C22.4543 43.5241 22.5189 43.4534 22.4943 43.4138C22.4688 43.3725 22.4982 43.3602 22.5633 43.3853C22.6257 43.409 22.6771 43.3962 22.6771 43.3562C22.6771 43.3163 22.7346 43.2626 22.8049 43.2372C22.9882 43.1712 23.24 43.017 23.3964 42.8755C23.4703 42.8087 23.5533 42.7538 23.5806 42.7538C23.6078 42.7538 23.726 42.6685 23.8434 42.5639C23.9607 42.4598 24.0732 42.3855 24.0934 42.3991C24.1136 42.4132 24.2068 42.3548 24.3008 42.2699C24.3944 42.1851 24.5785 42.0546 24.7095 41.9795C24.8405 41.9048 24.9472 41.8177 24.9472 41.7861C24.9472 41.7545 24.9969 41.7285 25.0571 41.7285C25.1177 41.7285 25.167 41.6956 25.167 41.6552C25.167 41.6152 25.2021 41.5822 25.2452 41.5822C25.3304 41.5822 25.8477 41.2131 25.8872 41.1243C25.9008 41.094 25.9571 41.0694 26.0129 41.0694C26.0687 41.0694 26.2225 40.9758 26.3548 40.862C26.4871 40.7477 26.7024 40.5921 26.8333 40.5166C26.9643 40.4405 27.0715 40.3509 27.0715 40.317C27.0715 40.2828 27.0983 40.2718 27.1308 40.292C27.1638 40.3122 27.2829 40.2489 27.3963 40.1518C27.5092 40.0547 27.6639 39.9554 27.7395 39.9312C27.8151 39.9075 27.877 39.864 27.877 39.835C27.877 39.8064 27.9842 39.7207 28.1152 39.6451C28.2462 39.57 28.4026 39.4628 28.4628 39.4078C28.5234 39.3525 28.8693 39.1196 29.2318 38.8897C29.5944 38.6599 29.9547 38.4138 30.0321 38.3431C30.1098 38.2723 30.2333 38.1954 30.3067 38.1721C30.3805 38.1488 30.4403 38.0992 30.4403 38.0614C30.4403 38.024 30.49 37.9933 30.5502 37.9933C30.6108 37.9933 30.66 37.9678 30.66 37.937C30.66 37.9058 30.8086 37.7995 30.9896 37.7002C31.1711 37.6013 31.3192 37.4927 31.3192 37.4593C31.3192 37.4259 31.3473 37.4158 31.3816 37.4369C31.4159 37.458 31.5064 37.4189 31.5829 37.349C31.7784 37.1719 32.8498 36.4552 32.9192 36.4552C32.9509 36.4552 33.0699 36.3576 33.1846 36.2381C33.2989 36.1186 33.4184 36.0369 33.4501 36.0566C33.4817 36.076 33.5415 36.0338 33.5832 35.9626C33.6245 35.891 33.6597 35.8589 33.661 35.8905C33.6619 35.9222 33.7339 35.8822 33.8205 35.8013C33.9071 35.7209 34.006 35.6721 34.0402 35.6932C34.0745 35.7143 34.1026 35.68 34.1026 35.6172C34.1026 35.5543 34.1273 35.51 34.1576 35.5183C34.2472 35.5429 34.6414 35.3104 34.7917 35.1443C34.8682 35.0595 34.96 34.9905 34.996 34.9905C35.0316 34.9905 35.1006 34.958 35.1494 34.9185C35.5875 34.5608 35.7141 34.4733 35.7158 34.526C35.7172 34.5599 35.7523 34.5291 35.7936 34.4579C35.8354 34.3863 35.9004 34.3472 35.9382 34.3705C35.976 34.3942 36.0068 34.3859 36.0068 34.3529C36.0068 34.3195 36.1386 34.211 36.2999 34.1116C36.4607 34.0119 36.5925 33.9051 36.5925 33.8743C36.5925 33.8436 36.6176 33.8264 36.6475 33.8361C36.7112 33.8559 37.4086 33.3901 37.4886 33.2741C37.5184 33.231 37.5431 33.2204 37.5435 33.2503C37.5448 33.3009 37.7281 33.169 37.9504 32.9581C38.0036 32.9076 38.0673 32.8663 38.0919 32.8663C38.1565 32.8663 38.5656 32.5701 38.8245 32.3358C38.9462 32.2251 39.0794 32.1337 39.1193 32.1328C39.1598 32.1319 39.3241 32.0164 39.485 31.8762C39.6458 31.736 39.8163 31.6213 39.8642 31.6213C39.9121 31.6213 40.0158 31.5391 40.0954 31.4381C40.1745 31.3374 40.2707 31.2552 40.3094 31.2552C40.348 31.2552 40.4689 31.1726 40.5774 31.072C40.686 30.9714 40.8015 30.8888 40.8336 30.8888C40.8657 30.8888 40.9958 30.7899 41.1228 30.6686C41.2498 30.5473 41.3535 30.4713 41.3535 30.4994C41.3535 30.5275 41.4159 30.4862 41.4928 30.4084C41.5693 30.3302 41.7424 30.1839 41.8773 30.0837C42.0122 29.9831 42.21 29.8099 42.3168 29.6992C42.4235 29.588 42.5461 29.4975 42.5896 29.4975C42.6327 29.4975 42.7224 29.4149 42.7883 29.3142C42.8542 29.2136 42.9421 29.131 42.9829 29.131C43.0243 29.131 43.1293 29.0571 43.2172 28.9662C43.3046 28.8757 43.5722 28.6208 43.8113 28.4002C44.0508 28.1791 44.238 27.9722 44.2275 27.9401C44.2169 27.908 44.2578 27.8627 44.3184 27.8399C44.3791 27.8166 44.4098 27.7669 44.387 27.73C44.3641 27.6931 44.3747 27.6716 44.4103 27.683C44.4872 27.7067 44.942 27.2928 44.942 27.1992C44.942 27.1631 45.0176 27.0643 45.1103 26.979C45.2026 26.8938 45.4074 26.6591 45.5656 26.4578C45.7233 26.2566 45.8868 26.0676 45.9286 26.0377C45.9699 26.0083 45.9778 25.9837 45.9457 25.9828C45.9132 25.9823 45.9874 25.8747 46.11 25.7437C46.2326 25.6128 46.3333 25.4669 46.3333 25.4194C46.3337 25.372 46.3781 25.2889 46.4322 25.2349C46.5816 25.085 46.9533 24.4878 46.9353 24.4254C46.9265 24.3951 46.9582 24.3705 47.0052 24.3705C47.0522 24.3705 47.0689 24.3485 47.0421 24.3221C47.0153 24.2953 47.0777 24.1635 47.1801 24.029C47.2825 23.8945 47.3475 23.7847 47.3238 23.7847C47.3005 23.7847 47.3822 23.6032 47.5057 23.3817C47.6288 23.1602 47.7114 22.9787 47.689 22.9787C47.6666 22.9787 47.6995 22.8799 47.7619 22.759C47.9201 22.4536 48.3842 20.9529 48.418 20.6383C48.4334 20.4954 48.5006 20.1316 48.5674 19.8297C48.6342 19.5273 48.6935 19.0743 48.6988 18.8225C48.7045 18.5707 48.7313 18.3646 48.7581 18.3646C48.7854 18.3646 48.8126 16.4508 48.8192 14.1112L48.8311 9.85735L48.5894 9.64466C48.4567 9.52732 48.3196 9.43109 48.2853 9.43065C48.2506 9.42977 48.1227 9.34539 48.0001 9.24212C47.8696 9.13226 47.7303 9.07338 47.6622 9.09974C47.5989 9.12391 47.5694 9.12172 47.5967 9.09403C47.6538 9.0369 47.3783 8.804 47.0386 8.62251C46.9129 8.55527 46.6286 8.40454 46.4071 8.28765C46.1852 8.17032 45.9874 8.05562 45.9677 8.03233C45.9149 7.97213 45.6477 7.86578 45.5831 7.87985C45.5528 7.886 45.5282 7.86183 45.5282 7.82535C45.5282 7.78932 45.3634 7.70011 45.1617 7.6276C44.9605 7.55553 44.7957 7.46413 44.7957 7.42502C44.7957 7.38591 44.7759 7.3736 44.7522 7.39777C44.728 7.4215 44.5676 7.36262 44.3953 7.26638C44.2231 7.17014 44.0613 7.11213 44.0359 7.13718C44.0108 7.16267 43.9902 7.1429 43.9902 7.09368C43.9902 7.04402 43.9572 7.02425 43.9168 7.04885C43.8763 7.0739 43.8434 7.0594 43.8434 7.01678C43.8434 6.97415 43.7928 6.93899 43.7313 6.93899C43.6694 6.93899 43.4615 6.85945 43.2686 6.76146C42.7263 6.4868 42.7399 6.43319 42.7619 8.73852L42.7817 10.7841L43.4773 11.1304C43.8601 11.3207 44.2376 11.5268 44.3162 11.5883C44.3949 11.6494 44.4977 11.6999 44.5443 11.6999C44.5913 11.6999 44.7117 11.7645 44.8128 11.8441C44.9134 11.9232 45.0167 11.9671 45.0422 11.9416C45.0756 11.9082 45.12 15.0973 45.1055 16.4604C45.0892 18.0095 44.7908 20.3728 44.4819 21.4042C44.3971 21.6863 44.3241 21.95 44.3193 21.99C44.2925 22.2137 44.0969 22.759 44.0438 22.759C44.0095 22.759 44.0016 22.792 44.0266 22.8324C44.0517 22.8728 44.0372 22.9058 43.9946 22.9058C43.9515 22.9058 43.9168 22.9467 43.9163 22.9972C43.9163 23.1673 43.1148 24.6636 43.0243 24.6636C42.9913 24.6636 42.9645 24.6987 42.9645 24.7414C42.9645 24.8082 42.8234 25.0195 42.4886 25.4541C42.4481 25.5064 42.3334 25.6299 42.2328 25.7288C42.1326 25.8277 42.0715 25.9085 42.0966 25.9085C42.1221 25.9085 41.9999 26.0531 41.8259 26.2302C41.6514 26.4073 41.5231 26.5664 41.5407 26.5839C41.5583 26.602 41.4906 26.6604 41.39 26.714C41.2893 26.7681 41.2067 26.8379 41.2067 26.8691C41.2067 26.9439 39.7038 28.4718 39.6304 28.4718C39.5992 28.4718 39.4551 28.5944 39.3101 28.7438C39.165 28.8932 39.0925 28.9868 39.1492 28.9521C39.2195 28.9091 39.2354 28.9156 39.1998 28.9732C39.1712 29.0198 39.1075 29.058 39.0583 29.058C39.009 29.058 38.875 29.1648 38.7603 29.2958C38.6452 29.4267 38.5358 29.5221 38.5169 29.5071C38.4975 29.4926 38.2624 29.6776 37.9935 29.918C37.725 30.1588 37.1761 30.6181 36.774 30.9388C36.3724 31.2596 35.998 31.5774 35.943 31.645C35.8877 31.7127 35.798 31.7676 35.744 31.7676C35.6899 31.7676 35.6104 31.8336 35.5673 31.9144C35.5242 31.9948 35.4487 32.0608 35.3994 32.0608C35.3498 32.0608 35.2685 32.1267 35.218 32.2071C35.1679 32.2879 35.0927 32.3539 35.051 32.3539C34.9666 32.3539 34.0798 33.0706 34.0416 33.1695C34.0279 33.2042 33.9704 33.2328 33.9132 33.2328C33.8561 33.2328 33.8095 33.2657 33.8095 33.3057C33.8095 33.3461 33.766 33.3791 33.7129 33.3791C33.6597 33.3791 33.5489 33.4534 33.4663 33.5439C33.3841 33.6344 33.2101 33.7913 33.0796 33.8919C32.9491 33.9926 32.7984 34.116 32.7452 34.1666C32.6916 34.2167 32.6213 34.258 32.5879 34.258C32.5549 34.258 32.3958 34.3722 32.235 34.512C31.8342 34.8591 31.8505 34.8464 31.3561 35.2098C31.1144 35.3878 30.8345 35.6088 30.7343 35.7011C30.6337 35.7938 30.5128 35.8694 30.4658 35.8694C30.4183 35.8694 30.3682 35.8958 30.3551 35.9283C30.3414 35.9613 30.1327 36.134 29.891 36.3124C29.6493 36.4912 29.4252 36.6789 29.3931 36.7294C29.361 36.78 29.2925 36.8213 29.2411 36.8213C29.1896 36.8213 29.0701 36.9039 28.9756 37.0045C28.8812 37.1051 28.7673 37.1878 28.723 37.1878C28.6786 37.1878 28.5876 37.2453 28.5208 37.3156C28.3525 37.4941 28.1851 37.6272 28.1284 37.6272C28.0695 37.6272 27.3369 38.2284 27.3031 38.3044C27.2899 38.3347 27.2372 38.3593 27.1858 38.3593C27.1348 38.3593 27.0069 38.4389 26.9023 38.536C26.7305 38.6951 26.7028 38.7008 26.6171 38.5949C26.5389 38.4986 26.5394 38.4881 26.6185 38.536C26.6835 38.5751 26.7283 38.5434 26.7551 38.4402C26.7775 38.3554 26.8386 38.2864 26.8909 38.2864C26.9436 38.2864 27.1348 38.1378 27.3163 37.9568C27.4973 37.7753 27.6806 37.6272 27.7232 37.6272C27.7654 37.6272 27.8546 37.5446 27.9205 37.444C27.9864 37.3433 28.0778 37.2603 28.1236 37.2594C28.1961 37.2576 28.5415 36.9667 29.2898 36.2772C29.4023 36.174 29.5258 36.0891 29.5645 36.0891C29.6032 36.0891 29.6348 36.0386 29.6348 35.9775C29.6348 35.916 29.7091 35.8365 29.7996 35.8009C30.0009 35.7218 30.2267 35.4625 30.1599 35.3878C30.1327 35.3575 30.1542 35.3583 30.2074 35.3887C30.2672 35.4234 30.3783 35.3724 30.5001 35.2546C30.7044 35.0578 30.8187 34.9567 31.4611 34.4043C31.6725 34.2233 31.9467 33.9842 32.0715 33.8735C32.1959 33.7627 32.3224 33.6722 32.3528 33.6722C32.3831 33.6722 32.4266 33.6133 32.4494 33.5412C32.4723 33.4696 32.5879 33.3536 32.7065 33.2833C32.8252 33.2134 33.0537 33.0332 33.215 32.883C33.3762 32.7331 33.6803 32.4615 33.8908 32.2805C34.1018 32.099 34.3426 31.881 34.4265 31.7953C34.51 31.7101 34.7218 31.5202 34.8967 31.3743C35.0716 31.228 35.1907 31.1085 35.1617 31.1085C35.1323 31.1085 35.1938 31.0412 35.2988 30.9586C35.5497 30.7613 36.1535 30.1566 36.0995 30.1566C36.0766 30.1566 36.1781 30.0397 36.3249 29.8965C36.4721 29.7537 36.5925 29.624 36.5925 29.6082C36.5925 29.5928 36.7327 29.4258 36.9041 29.2378C37.075 29.0497 37.2152 28.8726 37.2152 28.844C37.2152 28.8154 37.2978 28.7113 37.3985 28.6129C37.4991 28.5149 37.6142 28.3822 37.6547 28.3184C37.7391 28.1848 38.0638 27.7265 38.4 27.266C38.5279 27.0906 38.6127 26.9276 38.5889 26.9039C38.5652 26.8801 38.5766 26.8608 38.6144 26.8608C38.6522 26.8608 38.7647 26.7039 38.8645 26.5128C38.9647 26.3216 39.104 26.0861 39.1743 25.9903C39.245 25.894 39.3026 25.7538 39.3026 25.6791C39.3026 25.604 39.3312 25.5425 39.3659 25.5425C39.4599 25.5425 39.8559 24.7093 39.8269 24.5717C39.8207 24.5418 39.8501 24.5168 39.8928 24.5168C39.9354 24.5168 39.9517 24.4869 39.9288 24.45C39.9064 24.4131 39.9209 24.3718 39.9622 24.3582C40.0031 24.3445 40.0497 24.2659 40.0655 24.1833C40.0813 24.1006 40.1516 23.9029 40.2219 23.7438C40.2922 23.5852 40.3577 23.416 40.3683 23.3685C40.3784 23.3206 40.4715 23.024 40.5752 22.7094C40.8481 21.8801 41.1351 20.7696 41.0933 20.7024C41.0736 20.6708 41.0933 20.4862 41.1373 20.292C41.3038 19.5546 41.4216 18.2863 41.3768 17.7072C41.3447 17.2875 41.3557 17.1196 41.4159 17.1196C41.4783 17.1196 41.4998 15.3412 41.4998 10.125C41.4998 4.02855 41.4862 3.13076 41.3926 3.13076C41.3333 3.13076 41.1768 3.08506 41.0446 3.02969C40.5089 2.80469 39.6067 2.47906 39.1927 2.36129C38.951 2.29274 38.7041 2.21847 38.6434 2.1965C38.5828 2.17453 38.4677 2.14421 38.3872 2.12883C38.3064 2.11389 38.0673 2.03654 37.8559 1.95788C37.6441 1.87878 37.4547 1.81374 37.4345 1.81331C37.4147 1.81287 37.3901 1.80891 37.38 1.80452C37.3699 1.80012 37.2794 1.79089 37.1788 1.78386C37.0781 1.77683 36.7784 1.69685 36.513 1.60633C36.248 1.51624 35.9347 1.42923 35.8174 1.41297C35.7 1.39671 35.3898 1.3264 35.1279 1.25609C34.866 1.18578 34.5693 1.12206 34.4687 1.11503C34.3681 1.10756 34.2362 1.08383 34.1756 1.06185C33.9937 0.995498 32.917 0.779731 32.5646 0.738862C32.3831 0.717769 31.8065 0.624167 31.2827 0.530565C30.7589 0.437403 30.1986 0.359621 30.0378 0.358303C29.8765 0.356984 29.2995 0.30469 28.7559 0.242289C28.2119 0.179449 27.1739 0.0955145 26.4488 0.0559644C25.1881 -0.012589 24.7829 -0.0156651 23.2993 0.0331133ZM27.6573 5.13331C28.0779 5.1588 28.8847 5.32579 29.1954 5.45191C29.2556 5.47608 29.3553 5.5064 29.4164 5.51871C29.5676 5.54947 30.5779 6.03549 30.8138 6.19106C31.3117 6.51888 31.4545 6.63534 31.7956 6.99041C32.2873 7.5028 32.4178 7.66056 32.4178 7.74186C32.4178 7.77965 32.4644 7.83722 32.5211 7.8693C32.5778 7.90138 32.7377 8.14966 32.8766 8.4208C33.015 8.69194 33.1447 8.89804 33.164 8.8787C33.1833 8.85937 33.2009 8.88442 33.2031 8.93495C33.2106 9.10809 33.2976 9.49524 33.3754 9.70003C33.6184 10.339 33.6491 23.8159 33.4092 24.4803C33.3802 24.5607 33.3187 24.7255 33.2725 24.8464C33.2264 24.9672 33.1842 25.0912 33.1785 25.121C33.1732 25.1514 33.1605 25.1927 33.1504 25.2129C33.1403 25.2327 33.1271 25.274 33.1209 25.3043C33.0915 25.4524 32.6863 26.2003 32.565 26.3304C32.489 26.4121 32.4437 26.4961 32.4648 26.5167C32.4855 26.5378 32.2034 26.8582 31.8377 27.2291C31.4721 27.5999 31.1729 27.8816 31.1729 27.8553C31.1729 27.8109 31.0968 27.8641 30.8556 28.0776C30.8046 28.1229 30.6851 28.1844 30.5893 28.2147C30.4935 28.2455 30.3498 28.3307 30.2702 28.405C30.1907 28.4793 30.0975 28.5228 30.0633 28.5017C30.029 28.4806 30.0009 28.4982 30.0009 28.5408C30.0009 28.5834 29.927 28.6195 29.8361 28.6208C29.7455 28.6221 29.6076 28.6713 29.5293 28.7306C29.4511 28.79 29.3254 28.8383 29.2503 28.8383C29.1655 28.8383 29.1334 28.8704 29.1659 28.9227C29.1954 28.971 29.1861 28.9877 29.1439 28.9613C29.1031 28.9363 28.8552 28.9772 28.5929 29.0523C28.331 29.127 27.8731 29.2096 27.5756 29.2351C27.2781 29.261 26.9239 29.3019 26.789 29.3261C26.6536 29.3503 26.3899 29.3775 26.2027 29.3863C25.6011 29.4149 15.7681 29.4245 15.7404 29.3964C15.7114 29.3678 16.4805 28.5276 17.0667 27.948C17.264 27.7529 17.3967 27.5929 17.3615 27.5929C17.3264 27.5929 17.3712 27.5419 17.4604 27.4791L17.6235 27.3648V17.2264V7.08753L17.3303 6.81199C17.1695 6.66038 17.0377 6.50922 17.0377 6.47626C17.0372 6.4077 16.5279 5.91377 16.4572 5.91377C16.4312 5.91377 16.3543 5.81973 16.2867 5.70503C16.2185 5.59034 16.0551 5.38995 15.9228 5.25943L15.6824 5.02301L21.4317 5.06388C24.5939 5.08629 27.3954 5.11749 27.6573 5.13331ZM23.1165 17.1284V25.1206L24.7095 25.0876C26.3926 25.0529 26.6242 25.0103 26.9797 24.6693C27.0706 24.5823 27.1445 24.5339 27.1445 24.5621C27.1445 24.7062 27.4736 24.2839 27.6626 23.8972L27.8788 23.4551L27.8757 16.968C27.8722 9.66839 27.9368 10.4343 27.2697 9.78176C27.072 9.58797 26.8834 9.44647 26.8505 9.46668C26.818 9.4869 26.7797 9.47855 26.7665 9.44822C26.6716 9.23421 25.9747 9.13578 24.5627 9.13622H23.1165V17.1284ZM136.485 11.8032C136.47 11.8177 135.468 11.8489 134.259 11.8726C132.635 11.9047 131.824 11.9526 131.147 12.0572C130.643 12.135 130.215 12.1882 130.193 12.1754C130.172 12.1622 129.859 12.2154 129.497 12.2936C129.136 12.3719 128.79 12.4461 128.73 12.4593C128.633 12.48 128.618 13.8717 128.601 24.359L128.583 36.2355H131.403H134.223V26.6134V16.9913L134.461 16.9368C134.851 16.8472 136.812 16.8318 136.916 16.9175C136.968 16.9597 137.029 16.9742 137.053 16.95C137.174 16.8296 138.178 17.5432 138.178 17.7498C138.178 17.806 138.211 17.8522 138.251 17.8522C138.291 17.8522 138.318 17.8768 138.311 17.9071C138.303 17.937 138.336 18.0939 138.384 18.2547C138.448 18.4722 138.47 20.8277 138.47 27.3916L138.471 36.2355H140.963H143.454L143.449 26.8094L143.444 17.3833L144.015 17.2088C145.589 16.7281 147.241 17.0998 147.452 17.9818C147.478 18.0917 147.519 18.2147 147.543 18.2547C147.567 18.2951 147.592 18.3527 147.597 18.383C147.603 18.4133 147.612 22.4422 147.617 27.3367L147.626 36.2355H150.484H153.343L153.32 26.5128C153.299 17.6852 153.285 16.7496 153.174 16.3506C153.106 16.1089 153.049 15.829 153.046 15.7279C153.043 15.6273 152.977 15.4133 152.899 15.252C152.821 15.0907 152.756 14.9277 152.755 14.8899C152.752 14.8051 152.371 14.236 152.295 14.2021C152.265 14.189 152.24 14.1446 152.24 14.1041C152.24 14.0431 151.861 13.6621 151.306 13.1646C151.108 12.9871 150.524 12.6215 150.464 12.6373C150.434 12.6452 150.409 12.6215 150.409 12.5845C150.409 12.5476 150.31 12.4953 150.19 12.469C150.07 12.4426 149.952 12.3903 149.929 12.3534C149.907 12.316 149.814 12.2857 149.723 12.2857C149.633 12.2857 149.528 12.2589 149.49 12.226C149.415 12.1618 148.851 12.0146 148.431 11.95C147.897 11.8678 147.208 11.8511 144.733 11.8603C144.397 11.8617 143.518 11.9935 143.231 12.0853C143.09 12.1306 142.901 12.1587 142.811 12.1482C142.722 12.1376 142.607 12.1543 142.556 12.1855C142.506 12.2167 142.415 12.2484 142.354 12.2563C142.175 12.2791 140.931 12.7335 140.858 12.8025C140.82 12.8381 140.709 12.8069 140.602 12.7309C140.371 12.5687 139.667 12.2611 139.525 12.2611C139.469 12.2611 139.423 12.2409 139.423 12.2158C139.423 12.1912 139.365 12.1671 139.295 12.1627C139.224 12.1587 138.92 12.0998 138.617 12.0326C138.315 11.9649 137.744 11.8959 137.348 11.8788C136.952 11.8617 136.602 11.8318 136.571 11.8124C136.539 11.7931 136.501 11.7887 136.485 11.8032ZM54.7799 12.2862C54.7926 12.3701 54.8884 12.5366 54.993 12.6553C55.0971 12.7744 55.1679 12.8715 55.1499 12.8715C55.1314 12.8715 55.2004 12.962 55.3028 13.0723C55.4052 13.1826 55.4887 13.2995 55.4887 13.332C55.4887 13.3641 55.5695 13.4775 55.668 13.5838C55.7664 13.6902 55.8306 13.804 55.8104 13.837C55.7897 13.8699 55.8038 13.8972 55.8411 13.8972C55.8785 13.8972 55.9958 14.0281 56.1017 14.1885L56.2946 14.4799L56.2942 24.2773L56.2937 34.0747L56.056 34.3287C55.9255 34.468 55.8183 34.6007 55.8183 34.6232C55.8183 34.6456 55.7405 34.7458 55.6451 34.8455C55.5498 34.9453 55.4254 35.1342 55.3696 35.2652C55.3133 35.3961 55.229 35.5029 55.1828 35.5029C55.1362 35.5029 55.1182 35.5231 55.1428 35.5477C55.1674 35.5724 55.0905 35.6743 54.9719 35.7741C54.4032 36.2526 54.2349 36.2359 59.4986 36.2328C64.8669 36.2293 66.2771 36.1757 66.9811 35.9472C67.2394 35.8633 67.5361 35.7793 67.6402 35.7604C67.8112 35.7297 68.313 35.5152 68.5991 35.3509C68.6593 35.3162 68.8992 35.1826 69.1326 35.0542C69.6885 34.748 70.5428 34.0224 70.5296 33.8673C70.5239 33.8001 70.5533 33.7451 70.5942 33.7451C70.6785 33.7451 71.0156 33.3751 71.0156 33.2828C71.016 33.2499 71.0951 33.1181 71.1918 32.9897C71.4093 32.7015 71.7464 31.9065 71.7877 31.5853C71.8044 31.4539 71.8602 31.2517 71.9116 31.1357C72.2188 30.4414 72.0439 16.6068 71.7275 16.6068C71.6941 16.6068 71.6857 16.5756 71.7095 16.5374C71.7688 16.4411 71.2555 15.2884 71.1531 15.2884C71.1259 15.2884 71.0314 15.1487 70.9426 14.9773C70.7691 14.6425 69.8076 13.6774 69.648 13.6774C69.5944 13.6774 69.55 13.6524 69.5487 13.6225C69.5461 13.5544 69.206 13.3022 69.0882 13.2811C69.0407 13.2727 68.8865 13.1927 68.7454 13.1035C68.6044 13.0148 68.4066 12.9216 68.306 12.8965C68.2053 12.8719 68.0898 12.8271 68.0498 12.7977C67.9597 12.7322 67.431 12.5507 67.2808 12.534C67.2201 12.527 66.8365 12.4523 66.4278 12.367C65.5168 12.1781 66.2933 12.2027 60.0479 12.1649L54.7566 12.1328L54.7799 12.2862ZM74.9464 12.1882C74.9196 12.215 74.8977 17.6364 74.8977 24.236V36.2355H77.7176H80.5371V32.0542V27.8728L82.3133 27.9067C83.2902 27.9256 84.1554 27.959 84.2359 27.9809C84.3163 28.0034 84.3989 28.024 84.4191 28.0271C84.5237 28.0433 84.852 28.3923 84.9601 28.6014C85.0708 28.8163 85.0827 29.2123 85.0796 32.538L85.0756 36.2355H87.972H90.868L90.8438 32.4453C90.8302 30.3605 90.8003 28.5729 90.777 28.4718C90.7533 28.3712 90.6979 28.1347 90.654 27.9467C90.5652 27.5718 90.3046 27.0805 90.1934 27.0805C90.1548 27.0805 90.1464 27.0423 90.1754 26.9961C90.204 26.9496 90.1785 26.8753 90.1183 26.8314C90.0581 26.787 89.9697 26.6771 89.9218 26.5866C89.8739 26.4965 89.8107 26.4301 89.7817 26.4389C89.7527 26.4477 89.5246 26.3154 89.2745 26.1445C89.0245 25.974 88.654 25.796 88.4515 25.749L88.0832 25.6642L88.4664 25.408C88.6773 25.2674 88.8764 25.1083 88.9085 25.0542C88.941 25.0006 89.003 24.9562 89.0469 24.9562C89.1357 24.9562 89.4727 24.6148 89.4727 24.5247C89.4727 24.4926 89.5386 24.4069 89.6191 24.334C89.6995 24.261 89.7654 24.1595 89.7654 24.109C89.7654 24.058 89.8014 24.0044 89.8449 23.9899C89.9179 23.9657 90.1367 23.4287 90.2567 22.9787C90.4101 22.4066 90.3446 16.0698 90.1785 15.3618C90.1068 15.0573 89.7531 14.2632 89.6889 14.2632C89.656 14.2632 89.6103 14.2048 89.5874 14.1331C89.5386 13.9789 88.8461 13.238 88.7507 13.238C88.7147 13.238 88.6422 13.1866 88.5899 13.1233C88.4774 12.988 87.6253 12.5788 87.355 12.5309C87.2509 12.5125 87.0009 12.4514 86.7991 12.3947C86.5979 12.3385 86.1132 12.2576 85.7221 12.2158C84.9416 12.1319 75.0282 12.1064 74.9464 12.1882ZM98.2063 12.2202C97.914 12.2541 97.4693 12.3358 97.2175 12.4017C96.9662 12.4677 96.7271 12.5292 96.6867 12.5388C96.6467 12.5485 96.5227 12.5942 96.412 12.6408C96.075 12.7823 95.81 12.882 95.7713 12.882C95.7511 12.882 95.7085 12.9291 95.6759 12.9866C95.6439 13.0442 95.5731 13.0912 95.5191 13.0912C95.465 13.0912 95.3196 13.1857 95.1956 13.3013C95.0721 13.4169 94.9579 13.4986 94.9416 13.4828C94.9258 13.4665 94.8181 13.5781 94.7026 13.7302C94.587 13.8822 94.4248 14.0729 94.3422 14.1534C94.2051 14.2874 94.0557 14.5572 94.0184 14.7391C94.01 14.7796 93.9529 14.8683 93.8914 14.936C93.8298 15.0041 93.8013 15.0947 93.8276 15.1373C93.854 15.1803 93.8421 15.2155 93.8013 15.2155C93.7059 15.2155 93.4576 16.0276 93.4198 16.4604C93.3706 17.0291 93.3886 31.6362 93.4392 32.0805C93.4906 32.5349 93.8364 33.5887 93.9735 33.7087C94.0192 33.7491 94.0983 33.8836 94.1489 34.0079C94.2495 34.2545 94.9614 35.0389 95.0572 35.0081C95.0897 34.9976 95.1354 35.0389 95.1587 35.0995C95.182 35.1602 95.2308 35.2103 95.2677 35.2103C95.3042 35.2103 95.509 35.3263 95.7225 35.4682C95.9365 35.6101 96.1857 35.7407 96.2767 35.7578C96.3676 35.7754 96.6291 35.8602 96.8576 35.9459C97.475 36.1779 98.5561 36.2306 102.748 36.2333L106.467 36.2355L106.447 33.9468L106.428 31.6578L103.004 31.6433C101.12 31.6349 99.5378 31.602 99.4868 31.5699C99.4358 31.5378 99.304 31.4016 99.1941 31.268L98.9937 31.0241V28.7227V26.4214H102.288H105.581L105.602 24.1692L105.622 21.917L102.308 21.9342L98.9937 21.9513V19.6965V17.4417L99.1919 17.1363C99.489 16.6784 99.4723 16.6802 103.143 16.6802H106.464V14.4096V12.1394L102.601 12.1486C100.476 12.1539 98.4985 12.186 98.2063 12.2202ZM109.223 12.1882C109.196 12.215 109.174 17.6364 109.174 24.236V36.2355H112.031H114.887V32.0608V27.886H117.267H119.647L119.666 32.0423L119.685 36.199L122.598 36.2179L125.512 36.2372L125.488 27.0265C125.466 18.5351 125.454 17.7783 125.336 17.3415C125.266 17.0805 125.2 16.8098 125.189 16.7391C125.178 16.6683 125.146 16.5879 125.118 16.5602C125.091 16.5321 125.066 16.4569 125.065 16.3932C125.064 16.3295 124.999 16.1454 124.921 15.9845C124.843 15.8233 124.779 15.6501 124.777 15.6C124.776 15.5495 124.742 15.5082 124.701 15.5082C124.661 15.5082 124.635 15.4836 124.643 15.4532C124.673 15.3416 124.174 14.6302 124.098 14.6772C124.053 14.7049 124.041 14.6908 124.069 14.6447C124.123 14.5581 123.386 13.7504 123.254 13.7504C123.211 13.7504 123.165 13.7258 123.151 13.6955C123.085 13.5469 122.397 13.1251 122.266 13.1532C122.236 13.1593 122.211 13.1347 122.211 13.0978C122.211 13.0205 121.099 12.5793 120.806 12.5397C120.697 12.5252 120.472 12.4764 120.304 12.4316C120.136 12.3864 119.981 12.3679 119.958 12.3903C119.936 12.4127 119.881 12.4009 119.837 12.3644C119.609 12.1741 109.406 12.0049 109.223 12.1882ZM158.428 12.563C158.355 12.7933 158.234 13.1694 158.158 13.3993C158.081 13.6287 158.006 13.8761 157.991 13.9486C157.976 14.0211 157.828 14.4922 157.663 14.9953C157.498 15.4989 157.346 16.0052 157.326 16.1208C157.305 16.2363 157.24 16.4244 157.181 16.5382C157.122 16.6525 157.06 16.8217 157.043 16.9144C157.026 17.0071 157.007 17.0831 157.001 17.0831C156.994 17.0831 156.979 17.1407 156.965 17.211C156.943 17.3292 157.039 17.3393 158.179 17.3393H159.417V26.7874V36.2355H162.274H165.13V24.1859V12.1363L161.845 12.1407L158.561 12.1451L158.428 12.563ZM169.201 12.2308C169.131 12.4769 168.92 13.0719 168.855 13.2055C168.815 13.2881 168.791 13.387 168.801 13.4252C168.811 13.463 168.771 13.6093 168.711 13.7504C168.651 13.8915 168.558 14.1551 168.504 14.3366C168.451 14.5177 168.346 14.8393 168.271 15.0507C168.196 15.2625 168.137 15.444 168.139 15.4537C168.146 15.4866 168.085 15.687 167.956 16.0575C167.839 16.3954 167.782 16.5967 167.652 17.1381L167.603 17.3393H168.857H170.111V26.7874V36.2355H172.93H175.75V24.1872V12.1394H172.489C169.943 12.1394 169.221 12.1592 169.201 12.2308ZM83.8698 16.4969C84.1313 16.6591 84.2789 16.8226 84.4319 17.1187L84.6393 17.5204L84.6208 19.9017L84.6019 22.2831L84.3897 22.6689C84.2728 22.8807 84.1616 23.0389 84.1427 23.02C84.1238 23.0012 84.0618 23.0324 84.0052 23.0895C83.7929 23.3017 83.3385 23.3698 81.9472 23.3997L80.5371 23.4296V19.8275V16.2258L82.0263 16.2517L83.5152 16.2772L83.8698 16.4969ZM118.644 16.4771C118.855 16.5949 118.991 16.6362 118.994 16.5835C118.998 16.536 119.019 16.5466 119.042 16.6068C119.065 16.6674 119.172 16.8322 119.281 16.9733C119.637 17.4351 119.648 17.5402 119.648 20.5728V23.4182H117.268H114.887V19.8204V16.2223L116.594 16.2535C118.272 16.2842 118.305 16.2877 118.644 16.4771ZM64.3558 16.5343C64.5747 16.5747 64.8313 16.623 64.9262 16.6415C65.0207 16.6595 65.1446 16.7127 65.2009 16.7597C65.2571 16.8063 65.3033 16.8177 65.3033 16.7852C65.3033 16.7522 65.3516 16.7896 65.4105 16.8674C65.4698 16.9456 65.519 16.9851 65.5203 16.9548C65.5243 16.8612 65.7915 17.1622 66.0657 17.5696L66.3276 17.9585L66.3096 24.1855C66.2929 30.1254 66.2854 30.4221 66.1553 30.6141C66.0802 30.7248 66.0393 30.8158 66.0644 30.8158C66.136 30.8158 65.7357 31.1999 65.4237 31.431C65.0123 31.736 64.7491 31.7843 63.3073 31.8204L62.0074 31.8533V24.1569V16.4604H62.9825C63.5191 16.4604 64.137 16.4938 64.3558 16.5343Z" fill="var(--fill-0, #EC1C24)"/>
<path id="path1" fill-rule="evenodd" clip-rule="evenodd" d="M4.06381 7.4269C3.97197 7.53852 3.979 7.54072 4.14642 7.45371C4.39207 7.32583 4.41053 7.30518 4.27738 7.30518C4.21542 7.30518 4.11918 7.35967 4.06381 7.4269ZM33.1261 8.89816C33.0896 8.96013 33.1981 9.28268 33.2557 9.28268C33.2759 9.28268 33.2627 9.20358 33.2258 9.1069C33.1894 9.01022 33.1788 8.91135 33.2034 8.88718C33.2276 8.86301 33.2276 8.84323 33.203 8.84323C33.1784 8.84323 33.1441 8.86784 33.1261 8.89816ZM133.237 11.8363C133.029 11.8811 135.863 11.8649 136.31 11.8187C136.43 11.8064 135.837 11.795 134.991 11.7932C134.145 11.7915 133.356 11.8108 133.237 11.8363ZM136.572 11.7994C136.589 11.8143 136.784 11.8451 137.005 11.8679C137.265 11.8947 137.343 11.8877 137.225 11.8486C137.043 11.788 136.513 11.748 136.572 11.7994ZM144.732 11.8464C144.638 11.8873 144.717 11.8947 144.952 11.8675C145.153 11.8442 145.332 11.8134 145.348 11.7989C145.412 11.7445 144.872 11.7858 144.732 11.8464ZM145.611 11.8187C146.087 11.8679 147.833 11.8798 147.714 11.8328C147.645 11.8055 147.094 11.7858 146.49 11.7897C145.886 11.7932 145.49 11.8064 145.611 11.8187ZM0.00289666 14.2994C0.00289666 15.1453 0.0134433 15.4815 0.0261872 15.0464C0.0393706 14.611 0.0393706 13.9188 0.0261872 13.5084C0.0134433 13.0975 0.00245721 13.4535 0.00289666 14.2994ZM41.3753 17.5223C41.3758 17.764 41.3894 17.8541 41.4057 17.7222C41.4224 17.5904 41.4219 17.3926 41.4052 17.2828C41.3885 17.1729 41.3749 17.2806 41.3753 17.5223ZM48.7686 17.6686C48.7694 17.8299 48.7844 17.887 48.802 17.7961C48.8195 17.7046 48.8187 17.5728 48.8006 17.5029C48.7822 17.4331 48.7677 17.5073 48.7686 17.6686ZM99.085 21.9304C99.1553 21.9488 99.2709 21.9488 99.3412 21.9304C99.4115 21.9119 99.354 21.897 99.2129 21.897C99.0718 21.897 99.0143 21.9119 99.085 21.9304ZM99.8193 21.9339C100.012 21.9488 100.309 21.9488 100.479 21.9334C100.649 21.918 100.491 21.9057 100.129 21.9057C99.7662 21.9062 99.6269 21.9189 99.8193 21.9339ZM101.245 21.9343C101.497 21.9484 101.909 21.9484 102.161 21.9343C102.413 21.9198 102.207 21.9084 101.703 21.9084C101.2 21.9084 100.994 21.9198 101.245 21.9343ZM103.077 21.9343C103.328 21.9484 103.74 21.9484 103.992 21.9343C104.244 21.9198 104.038 21.9084 103.534 21.9084C103.031 21.9084 102.825 21.9198 103.077 21.9343ZM104.615 21.9317C104.706 21.9492 104.838 21.9488 104.909 21.9304C104.978 21.9119 104.904 21.8978 104.743 21.8983C104.582 21.8991 104.524 21.9141 104.615 21.9317ZM105.456 21.926C105.572 21.9602 105.585 22.1496 105.604 24.1737L105.625 26.3841L105.623 24.1513C105.622 21.973 105.618 21.918 105.475 21.9035C105.363 21.8921 105.359 21.8974 105.456 21.926ZM89.2524 26.1314C89.5064 26.3041 89.651 26.3542 89.4722 26.2079C89.3715 26.1253 89.256 26.0576 89.2155 26.0576C89.1755 26.0572 89.1918 26.0906 89.2524 26.1314Z" fill="var(--fill-0, #F01C24)"/>
<path id="path2" fill-rule="evenodd" clip-rule="evenodd" d="M4.06381 7.4269C3.97197 7.53852 3.979 7.54072 4.14642 7.45371C4.39207 7.32583 4.41053 7.30518 4.27738 7.30518C4.21542 7.30518 4.11918 7.35967 4.06381 7.4269ZM33.1261 8.89816C33.0896 8.96013 33.1981 9.28268 33.2557 9.28268C33.2759 9.28268 33.2627 9.20358 33.2258 9.1069C33.1894 9.01022 33.1788 8.91135 33.2034 8.88718C33.2276 8.86301 33.2276 8.84323 33.203 8.84323C33.1784 8.84323 33.1441 8.86784 33.1261 8.89816ZM133.237 11.8363C133.029 11.8811 135.863 11.8649 136.31 11.8187C136.43 11.8064 135.837 11.795 134.991 11.7932C134.145 11.7915 133.356 11.8108 133.237 11.8363ZM136.572 11.7994C136.589 11.8143 136.784 11.8451 137.005 11.8679C137.265 11.8947 137.343 11.8877 137.225 11.8486C137.043 11.788 136.513 11.748 136.572 11.7994ZM144.732 11.8464C144.638 11.8873 144.717 11.8947 144.952 11.8675C145.153 11.8442 145.332 11.8134 145.348 11.7989C145.412 11.7445 144.872 11.7858 144.732 11.8464ZM145.611 11.8187C146.087 11.8679 147.833 11.8798 147.714 11.8328C147.645 11.8055 147.094 11.7858 146.49 11.7897C145.886 11.7932 145.49 11.8064 145.611 11.8187ZM0.00289666 14.2994C0.00289666 15.1453 0.0134433 15.4815 0.0261872 15.0464C0.0393706 14.611 0.0393706 13.9188 0.0261872 13.5084C0.0134433 13.0975 0.00245721 13.4535 0.00289666 14.2994ZM41.3753 17.5223C41.3758 17.764 41.3894 17.8541 41.4057 17.7222C41.4224 17.5904 41.4219 17.3926 41.4052 17.2828C41.3885 17.1729 41.3749 17.2806 41.3753 17.5223ZM48.7686 17.6686C48.7694 17.8299 48.7844 17.887 48.802 17.7961C48.8195 17.7046 48.8187 17.5728 48.8006 17.5029C48.7822 17.4331 48.7677 17.5073 48.7686 17.6686ZM99.085 21.9304C99.1553 21.9488 99.2709 21.9488 99.3412 21.9304C99.4115 21.9119 99.354 21.897 99.2129 21.897C99.0718 21.897 99.0143 21.9119 99.085 21.9304ZM99.8193 21.9339C100.012 21.9488 100.309 21.9488 100.479 21.9334C100.649 21.918 100.491 21.9057 100.129 21.9057C99.7662 21.9062 99.6269 21.9189 99.8193 21.9339ZM101.245 21.9343C101.497 21.9484 101.909 21.9484 102.161 21.9343C102.413 21.9198 102.207 21.9084 101.703 21.9084C101.2 21.9084 100.994 21.9198 101.245 21.9343ZM103.077 21.9343C103.328 21.9484 103.74 21.9484 103.992 21.9343C104.244 21.9198 104.038 21.9084 103.534 21.9084C103.031 21.9084 102.825 21.9198 103.077 21.9343ZM104.615 21.9317C104.706 21.9492 104.838 21.9488 104.909 21.9304C104.978 21.9119 104.904 21.8978 104.743 21.8983C104.582 21.8991 104.524 21.9141 104.615 21.9317ZM105.456 21.926C105.572 21.9602 105.585 22.1496 105.604 24.1737L105.625 26.3841L105.623 24.1513C105.622 21.973 105.618 21.918 105.475 21.9035C105.363 21.8921 105.359 21.8974 105.456 21.926ZM89.2524 26.1314C89.5064 26.3041 89.651 26.3542 89.4722 26.2079C89.3715 26.1253 89.256 26.0576 89.2155 26.0576C89.1755 26.0572 89.1918 26.0906 89.2524 26.1314Z" fill="var(--fill-0, #F01C24)"/>
<path id="path3" fill-rule="evenodd" clip-rule="evenodd" d="M4.06381 7.4269C3.97197 7.53852 3.979 7.54072 4.14642 7.45371C4.39207 7.32583 4.41053 7.30518 4.27738 7.30518C4.21542 7.30518 4.11918 7.35967 4.06381 7.4269ZM33.1261 8.89816C33.0896 8.96013 33.1981 9.28268 33.2557 9.28268C33.2759 9.28268 33.2627 9.20358 33.2258 9.1069C33.1894 9.01022 33.1788 8.91135 33.2034 8.88718C33.2276 8.86301 33.2276 8.84323 33.203 8.84323C33.1784 8.84323 33.1441 8.86784 33.1261 8.89816ZM133.237 11.8363C133.029 11.8811 135.863 11.8649 136.31 11.8187C136.43 11.8064 135.837 11.795 134.991 11.7932C134.145 11.7915 133.356 11.8108 133.237 11.8363ZM136.572 11.7994C136.589 11.8143 136.784 11.8451 137.005 11.8679C137.265 11.8947 137.343 11.8877 137.225 11.8486C137.043 11.788 136.513 11.748 136.572 11.7994ZM144.732 11.8464C144.638 11.8873 144.717 11.8947 144.952 11.8675C145.153 11.8442 145.332 11.8134 145.348 11.7989C145.412 11.7445 144.872 11.7858 144.732 11.8464ZM145.611 11.8187C146.087 11.8679 147.833 11.8798 147.714 11.8328C147.645 11.8055 147.094 11.7858 146.49 11.7897C145.886 11.7932 145.49 11.8064 145.611 11.8187ZM0.00289666 14.2994C0.00289666 15.1453 0.0134433 15.4815 0.0261872 15.0464C0.0393706 14.611 0.0393706 13.9188 0.0261872 13.5084C0.0134433 13.0975 0.00245721 13.4535 0.00289666 14.2994ZM41.3753 17.5223C41.3758 17.764 41.3894 17.8541 41.4057 17.7222C41.4224 17.5904 41.4219 17.3926 41.4052 17.2828C41.3885 17.1729 41.3749 17.2806 41.3753 17.5223ZM48.7686 17.6686C48.7694 17.8299 48.7844 17.887 48.802 17.7961C48.8195 17.7046 48.8187 17.5728 48.8006 17.5029C48.7822 17.4331 48.7677 17.5073 48.7686 17.6686ZM99.085 21.9304C99.1553 21.9488 99.2709 21.9488 99.3412 21.9304C99.4115 21.9119 99.354 21.897 99.2129 21.897C99.0718 21.897 99.0143 21.9119 99.085 21.9304ZM99.8193 21.9339C100.012 21.9488 100.309 21.9488 100.479 21.9334C100.649 21.918 100.491 21.9057 100.129 21.9057C99.7662 21.9062 99.6269 21.9189 99.8193 21.9339ZM101.245 21.9343C101.497 21.9484 101.909 21.9484 102.161 21.9343C102.413 21.9198 102.207 21.9084 101.703 21.9084C101.2 21.9084 100.994 21.9198 101.245 21.9343ZM103.077 21.9343C103.328 21.9484 103.74 21.9484 103.992 21.9343C104.244 21.9198 104.038 21.9084 103.534 21.9084C103.031 21.9084 102.825 21.9198 103.077 21.9343ZM104.615 21.9317C104.706 21.9492 104.838 21.9488 104.909 21.9304C104.978 21.9119 104.904 21.8978 104.743 21.8983C104.582 21.8991 104.524 21.9141 104.615 21.9317ZM105.456 21.926C105.572 21.9602 105.585 22.1496 105.604 24.1737L105.625 26.3841L105.623 24.1513C105.622 21.973 105.618 21.918 105.475 21.9035C105.363 21.8921 105.359 21.8974 105.456 21.926ZM89.2524 26.1314C89.5064 26.3041 89.651 26.3542 89.4722 26.2079C89.3715 26.1253 89.256 26.0576 89.2155 26.0576C89.1755 26.0572 89.1918 26.0906 89.2524 26.1314Z" fill="var(--fill-0, #F01C24)"/>
<path id="path4" fill-rule="evenodd" clip-rule="evenodd" d="M4.06381 7.4269C3.97197 7.53852 3.979 7.54072 4.14642 7.45371C4.39207 7.32583 4.41053 7.30518 4.27738 7.30518C4.21542 7.30518 4.11918 7.35967 4.06381 7.4269ZM33.1261 8.89816C33.0896 8.96013 33.1981 9.28268 33.2557 9.28268C33.2759 9.28268 33.2627 9.20358 33.2258 9.1069C33.1894 9.01022 33.1788 8.91135 33.2034 8.88718C33.2276 8.86301 33.2276 8.84323 33.203 8.84323C33.1784 8.84323 33.1441 8.86784 33.1261 8.89816ZM133.237 11.8363C133.029 11.8811 135.863 11.8649 136.31 11.8187C136.43 11.8064 135.837 11.795 134.991 11.7932C134.145 11.7915 133.356 11.8108 133.237 11.8363ZM136.572 11.7994C136.589 11.8143 136.784 11.8451 137.005 11.8679C137.265 11.8947 137.343 11.8877 137.225 11.8486C137.043 11.788 136.513 11.748 136.572 11.7994ZM144.732 11.8464C144.638 11.8873 144.717 11.8947 144.952 11.8675C145.153 11.8442 145.332 11.8134 145.348 11.7989C145.412 11.7445 144.872 11.7858 144.732 11.8464ZM145.611 11.8187C146.087 11.8679 147.833 11.8798 147.714 11.8328C147.645 11.8055 147.094 11.7858 146.49 11.7897C145.886 11.7932 145.49 11.8064 145.611 11.8187ZM0.00289666 14.2994C0.00289666 15.1453 0.0134433 15.4815 0.0261872 15.0464C0.0393706 14.611 0.0393706 13.9188 0.0261872 13.5084C0.0134433 13.0975 0.00245721 13.4535 0.00289666 14.2994ZM41.3753 17.5223C41.3758 17.764 41.3894 17.8541 41.4057 17.7222C41.4224 17.5904 41.4219 17.3926 41.4052 17.2828C41.3885 17.1729 41.3749 17.2806 41.3753 17.5223ZM48.7686 17.6686C48.7694 17.8299 48.7844 17.887 48.802 17.7961C48.8195 17.7046 48.8187 17.5728 48.8006 17.5029C48.7822 17.4331 48.7677 17.5073 48.7686 17.6686ZM99.085 21.9304C99.1553 21.9488 99.2709 21.9488 99.3412 21.9304C99.4115 21.9119 99.354 21.897 99.2129 21.897C99.0718 21.897 99.0143 21.9119 99.085 21.9304ZM99.8193 21.9339C100.012 21.9488 100.309 21.9488 100.479 21.9334C100.649 21.918 100.491 21.9057 100.129 21.9057C99.7662 21.9062 99.6269 21.9189 99.8193 21.9339ZM101.245 21.9343C101.497 21.9484 101.909 21.9484 102.161 21.9343C102.413 21.9198 102.207 21.9084 101.703 21.9084C101.2 21.9084 100.994 21.9198 101.245 21.9343ZM103.077 21.9343C103.328 21.9484 103.74 21.9484 103.992 21.9343C104.244 21.9198 104.038 21.9084 103.534 21.9084C103.031 21.9084 102.825 21.9198 103.077 21.9343ZM104.615 21.9317C104.706 21.9492 104.838 21.9488 104.909 21.9304C104.978 21.9119 104.904 21.8978 104.743 21.8983C104.582 21.8991 104.524 21.9141 104.615 21.9317ZM105.456 21.926C105.572 21.9602 105.585 22.1496 105.604 24.1737L105.625 26.3841L105.623 24.1513C105.622 21.973 105.618 21.918 105.475 21.9035C105.363 21.8921 105.359 21.8974 105.456 21.926ZM89.2524 26.1314C89.5064 26.3041 89.651 26.3542 89.4722 26.2079C89.3715 26.1253 89.256 26.0576 89.2155 26.0576C89.1755 26.0572 89.1918 26.0906 89.2524 26.1314Z" fill="var(--fill-0, #F01C24)"/>
</g>
</svg>
