<svg width="22" height="23" viewBox="0 0 22 23" fill="none" xmlns="http://www.w3.org/2000/svg">
<g filter="url(#filter0_f_36_1370)">
<path d="M6.84698 17.3835L7.1276 17.5497C8.30623 18.2492 9.65762 18.6193 11.0358 18.6199H11.0387C15.2709 18.6199 18.7152 15.1763 18.717 10.9438C18.7177 8.8928 17.9198 6.96409 16.4701 5.51325C15.7591 4.79774 14.9132 4.23036 13.9814 3.84397C13.0496 3.45758 12.0504 3.25985 11.0417 3.26222C6.80617 3.26222 3.3617 6.70544 3.3602 10.9377C3.35811 12.3828 3.76508 13.7991 4.53405 15.0227L4.71674 15.313L3.94091 18.1454L6.84698 17.3835ZM1.72278 20.3397L3.03349 15.5541C2.22514 14.1536 1.79987 12.5648 1.80037 10.937C1.80251 5.84485 5.94647 1.70215 11.0388 1.70215C13.5099 1.7034 15.8294 2.66506 17.5738 4.41071C19.3182 6.15636 20.2779 8.4767 20.2771 10.9444C20.2748 16.0362 16.1302 20.1797 11.0387 20.1797H11.0346C9.48862 20.1791 7.96948 19.7912 6.62009 19.0554L1.72278 20.3397Z" fill="#B3B3B3"/>
</g>
<path d="M1.62793 20.2449L2.93864 15.4594C2.1289 14.0555 1.70357 12.463 1.70553 10.8423C1.70766 5.75012 5.85162 1.60742 10.9439 1.60742C13.4151 1.60868 15.7345 2.57034 17.4789 4.31599C19.2233 6.06164 20.1831 8.38197 20.1822 10.8497C20.1799 15.9415 16.0354 20.085 10.9438 20.085H10.9398C9.39377 20.0844 7.87463 19.6965 6.52525 18.9607L1.62793 20.2449Z" fill="white"/>
<path d="M10.9467 3.1675C6.71124 3.1675 3.26677 6.61071 3.26527 10.8429C3.26318 12.2881 3.67015 13.7044 4.43912 14.928L4.62181 15.2184L3.84598 18.0508L6.75217 17.2888L7.0328 17.455C8.21142 18.1545 9.56282 18.5244 10.941 18.5252H10.9438C15.1761 18.5252 18.6205 15.0816 18.6222 10.8491C18.6254 9.8403 18.4284 8.84089 18.0427 7.90873C17.6571 6.97656 17.0903 6.13016 16.3753 5.41853C15.6642 4.703 14.8183 4.13562 13.8865 3.74923C12.9547 3.36284 11.9555 3.16511 10.9467 3.1675Z" fill="url(#paint0_linear_36_1370)"/>
<path fill-rule="evenodd" clip-rule="evenodd" d="M8.63489 6.98132C8.46187 6.59699 8.27981 6.5892 8.11545 6.58255L7.67298 6.57715C7.51904 6.57715 7.26893 6.63491 7.05749 6.86593C6.84604 7.09696 6.24951 7.65533 6.24951 8.79101C6.24951 9.92669 7.0767 11.0241 7.19196 11.1783C7.30722 11.3325 8.78882 13.7373 11.1351 14.6625C13.085 15.4315 13.4817 15.2785 13.9051 15.2401C14.3285 15.2017 15.2708 14.6818 15.4631 14.1427C15.6553 13.6037 15.6554 13.1419 15.5978 13.0453C15.5401 12.9488 15.3862 12.8914 15.1552 12.7759C14.9242 12.6604 13.7895 12.102 13.5779 12.0249C13.3663 11.9478 13.2125 11.9095 13.0585 12.1406C12.9044 12.3716 12.4626 12.8913 12.3278 13.0453C12.1931 13.1994 12.0586 13.2187 11.8276 13.1033C11.5966 12.988 10.8533 12.7441 9.97134 11.9577C9.28516 11.3459 8.82197 10.5903 8.68712 10.3594C8.55227 10.1285 8.67281 10.0034 8.78857 9.8884C8.89216 9.78494 9.01935 9.61882 9.13499 9.4841C9.25063 9.34937 9.28868 9.25307 9.36552 9.09926C9.44236 8.94545 9.40406 8.81035 9.34631 8.69496C9.28855 8.57957 8.84005 7.43786 8.63489 6.98132Z" fill="white"/>
<defs>
<filter id="filter0_f_36_1370" x="0.836078" y="0.815449" width="20.3277" height="20.4111" filterUnits="userSpaceOnUse" color-interpolation-filters="sRGB">
<feFlood flood-opacity="0" result="BackgroundImageFix"/>
<feBlend mode="normal" in="SourceGraphic" in2="BackgroundImageFix" result="shape"/>
<feGaussianBlur stdDeviation="0.44335" result="effect1_foregroundBlur_36_1370"/>
</filter>
<linearGradient id="paint0_linear_36_1370" x1="10.7874" y1="4.08911" x2="10.8652" y2="17.2132" gradientUnits="userSpaceOnUse">
<stop stop-color="#57D163"/>
<stop offset="1" stop-color="#23B33A"/>
</linearGradient>
</defs>
</svg>
