<svg width="110" height="48" viewBox="0 0 110 48" fill="none" xmlns="http://www.w3.org/2000/svg">
<path d="M48.8634 37.6533C48.0421 37.6533 47.2101 37.4827 46.4101 37.1307L29.3434 29.5253C26.2928 28.1707 24.9168 24.576 26.2714 21.5253L33.8768 4.45867C35.2314 1.408 38.8261 0.0320002 41.8768 1.38667L58.9434 8.992C61.9941 10.3467 63.3701 13.9413 62.0154 16.992L54.4101 34.0587C53.3968 36.32 51.1781 37.6533 48.8634 37.6533ZM47.8288 33.9307C49.1194 34.5067 50.6341 33.92 51.2101 32.64L58.8154 15.5733C59.3914 14.2827 58.8048 12.768 57.5248 12.192L40.4474 4.58667C39.1568 4.01067 37.6421 4.59733 37.0661 5.87733L29.4608 22.944C28.8848 24.2347 29.4714 25.7493 30.7514 26.3253L47.8288 33.9307Z" fill="#089949"/>
<path d="M102.4 37.664H83.712C80.3733 37.664 77.6533 34.944 77.6533 31.6053V12.9173C77.6533 9.57864 80.3733 6.85864 83.712 6.85864H102.4C105.739 6.85864 108.459 9.57864 108.459 12.9173V31.6053C108.459 34.944 105.739 37.664 102.4 37.664ZM83.712 10.3573C82.304 10.3573 81.152 11.5093 81.152 12.9173V31.6053C81.152 33.0133 82.304 34.1653 83.712 34.1653H102.4C103.808 34.1653 104.96 33.0133 104.96 31.6053V12.9173C104.96 11.5093 103.808 10.3573 102.4 10.3573H83.712Z" fill="#F9B21D"/>
<path d="M32.4156 16.3413L29.8983 21.9733C29.8663 22.0373 29.8343 22.0907 29.8023 22.144L30.7836 28.2027C31.0076 29.6 30.0583 30.912 28.6716 31.136L10.2183 34.1227C9.5463 34.2293 8.86364 34.0693 8.30897 33.6747C7.7543 33.28 7.39164 32.6827 7.28497 32.0107L4.2983 13.5573C4.19164 12.8853 4.35164 12.2027 4.7463 11.648C5.14097 11.0933 5.7383 10.7307 6.4103 10.624L24.8636 7.63733C25.0023 7.616 25.141 7.60533 25.269 7.60533C26.4956 7.60533 27.5943 8.50133 27.797 9.76L28.789 15.8613L31.3916 10.0267L31.253 9.20533C30.7196 5.90933 27.605 3.65867 24.309 4.192L5.85564 7.17867C4.2663 7.424 2.8583 8.288 1.91964 9.6C0.970304 10.912 0.59697 12.512 0.85297 14.112L3.83964 32.5653C4.09564 34.1653 4.95964 35.5627 6.27164 36.512C7.3063 37.2693 8.53297 37.6533 9.8023 37.6533C10.1223 37.6533 10.453 37.632 10.7836 37.5787L29.237 34.592C32.533 34.0587 34.7836 30.944 34.2503 27.648L32.4156 16.3413Z" fill="#E42527"/>
<path d="M54.5495 25.152L57.2589 19.0826L56.4909 13.44C56.3949 12.768 56.5762 12.096 56.9922 11.552C57.4082 11.008 58.0055 10.656 58.6882 10.5706L77.2055 8.05331C77.3229 8.04264 77.4402 8.03198 77.5575 8.03198C78.1122 8.03198 78.6455 8.21331 79.1042 8.55464C79.1895 8.61864 79.2642 8.69331 79.3389 8.75731C80.1602 7.89331 81.2375 7.27464 82.4429 7.00798C82.1015 6.53864 81.6962 6.12264 81.2162 5.75998C79.9255 4.77864 78.3362 4.36264 76.7362 4.57598L58.1975 7.09331C56.5975 7.30664 55.1682 8.13864 54.1975 9.42931C53.2162 10.72 52.8002 12.3093 53.0135 13.9093L54.5495 25.152Z" fill="#226DB4"/>
<path d="M86.0587 28.2774L83.6267 10.3574C82.2614 10.4 81.1627 11.5307 81.1627 12.9067V18.1654L82.6027 28.7467C82.6987 29.4187 82.5174 30.0907 82.1014 30.6347C81.6854 31.1787 81.0881 31.5307 80.4054 31.616L61.8881 34.1334C61.2161 34.2294 60.5441 34.048 60.0001 33.632C59.4561 33.216 59.1041 32.6187 59.0187 31.936L58.1654 25.6534L55.4561 31.7227L55.5521 32.4054C55.7654 34.0054 56.5974 35.4347 57.8881 36.4054C58.9547 37.216 60.2241 37.6427 61.5467 37.6427C61.8241 37.6427 62.1014 37.6214 62.3787 37.5894L80.8747 35.0934C82.4747 34.88 83.9041 34.048 84.8747 32.7574C85.8561 31.4667 86.2721 29.8774 86.0587 28.2774Z" fill="#226DB4"/>
<path d="M69.9092 44.3307C69.9092 42.7307 71.0825 41.5787 72.6825 41.5787C74.3358 41.5787 75.4558 42.7093 75.4558 44.3413C75.4558 45.9947 74.3145 47.136 72.6612 47.136C70.9972 47.136 69.9092 45.9947 69.9092 44.3307ZM74.1758 44.352C74.1758 43.3813 73.7065 42.5493 72.6505 42.5493C71.5838 42.5493 71.1785 43.4133 71.1785 44.3947C71.1785 45.3227 71.6798 46.176 72.7038 46.176C73.7598 46.1653 74.1758 45.2587 74.1758 44.352ZM58.0798 41.664H58.8692C58.9865 41.664 59.0825 41.76 59.0825 41.8773V43.8613H61.3225V41.8773C61.3225 41.76 61.4185 41.664 61.5358 41.664H62.3252C62.4425 41.664 62.5385 41.76 62.5385 41.8773V46.8373C62.5385 46.9547 62.4425 47.0507 62.3252 47.0507H61.5465C61.4292 47.0507 61.3332 46.9547 61.3332 46.8373V44.832H59.0932V46.8373C59.0932 46.9547 58.9972 47.0507 58.8798 47.0507H58.0905C57.9732 47.0507 57.8772 46.9547 57.8772 46.8373V41.8773C57.8665 41.76 57.9625 41.664 58.0798 41.664ZM44.9492 44.3307C44.9492 42.7307 46.1225 41.5787 47.7225 41.5787C49.3758 41.5787 50.4958 42.7093 50.4958 44.3413C50.4958 45.9947 49.3545 47.136 47.7012 47.136C46.0372 47.136 44.9492 45.9947 44.9492 44.3307ZM49.2265 44.352C49.2265 43.3813 48.7572 42.5493 47.7012 42.5493C46.6345 42.5493 46.2292 43.4133 46.2292 44.3947C46.2292 45.3227 46.7305 46.176 47.7545 46.176C48.8105 46.1653 49.2265 45.2587 49.2265 44.352ZM33.8132 46.528L36.4585 42.624H34.2825C34.1652 42.624 34.0692 42.528 34.0692 42.4107V41.888C34.0692 41.7707 34.1652 41.6747 34.2825 41.6747H37.8558C37.9732 41.6747 38.0692 41.7707 38.0692 41.888V42.0907C38.0692 42.1333 38.0585 42.176 38.0372 42.208L35.4452 46.112H37.7705C37.8878 46.112 37.9838 46.208 37.9838 46.3253V46.848C37.9838 46.9653 37.8878 47.0613 37.7705 47.0613H33.9945C33.8772 47.0613 33.7812 46.9653 33.7812 46.848V46.656C33.7705 46.6027 33.7918 46.56 33.8132 46.528Z" fill="black"/>
</svg>
